%TF.GenerationSoftware,KiCad,Pcbnew,(7.0.0)*%
%TF.CreationDate,2023-08-19T05:22:45+05:30*%
%TF.ProjectId,glowtie,676c6f77-7469-4652-9e6b-696361645f70,rev?*%
%TF.SameCoordinates,Original*%
%TF.FileFunction,Copper,L2,Bot*%
%TF.FilePolarity,Positive*%
%FSLAX46Y46*%
G04 Gerber Fmt 4.6, Leading zero omitted, Abs format (unit mm)*
G04 Created by KiCad (PCBNEW (7.0.0)) date 2023-08-19 05:22:45*
%MOMM*%
%LPD*%
G01*
G04 APERTURE LIST*
%TA.AperFunction,ComponentPad*%
%ADD10O,1.200000X1.900000*%
%TD*%
%TA.AperFunction,ComponentPad*%
%ADD11C,1.450000*%
%TD*%
%TA.AperFunction,SMDPad,CuDef*%
%ADD12C,1.500000*%
%TD*%
%TA.AperFunction,ViaPad*%
%ADD13C,0.600000*%
%TD*%
%TA.AperFunction,Conductor*%
%ADD14C,0.500000*%
%TD*%
%TA.AperFunction,Conductor*%
%ADD15C,0.400000*%
%TD*%
G04 APERTURE END LIST*
D10*
X83574999Y-63812499D03*
D11*
X84575000Y-61112500D03*
X89575000Y-61112500D03*
D10*
X90574999Y-63812499D03*
D12*
X39020000Y-59520000D03*
X39160000Y-50810000D03*
X122850000Y-40350000D03*
X39060000Y-62510000D03*
X39010000Y-56370000D03*
X118950000Y-40350000D03*
X39140000Y-53680000D03*
D13*
X131825000Y-56725000D03*
X40825000Y-58725000D03*
X134275000Y-56750000D03*
X135325000Y-56725000D03*
X40150000Y-58700000D03*
X130850000Y-56725000D03*
X53875000Y-56425000D03*
X52625000Y-56400000D03*
X26575000Y-51550000D03*
X30850000Y-65550000D03*
X58650000Y-50400000D03*
X58650000Y-51050000D03*
X52725000Y-57550000D03*
X31550000Y-65550000D03*
X53250000Y-57025000D03*
X26200000Y-50950000D03*
X32325000Y-65500000D03*
X113900000Y-51450000D03*
X118750000Y-55050000D03*
X113250000Y-51450000D03*
X118500000Y-54375000D03*
X125450000Y-40400000D03*
X124800000Y-40400000D03*
X127250000Y-53350000D03*
X130350000Y-42400000D03*
X43100000Y-50250000D03*
X42775000Y-52675000D03*
X43300000Y-59825000D03*
X85475000Y-53875000D03*
X24750000Y-42800000D03*
X58600000Y-40500000D03*
X32100000Y-25900000D03*
X25275000Y-43275000D03*
X86200000Y-53875000D03*
X103850000Y-57700000D03*
X120400000Y-43300000D03*
X77050000Y-60400000D03*
X104350000Y-57200000D03*
X120400000Y-42650000D03*
X77050000Y-61050000D03*
D14*
X40150000Y-58700000D02*
X40800000Y-58700000D01*
X134275000Y-56750000D02*
X131850000Y-56750000D01*
X39840000Y-58700000D02*
X40150000Y-58700000D01*
X39020000Y-59520000D02*
X39840000Y-58700000D01*
X131850000Y-56750000D02*
X131825000Y-56725000D01*
X58650000Y-50400000D02*
X49575000Y-50400000D01*
X52655000Y-56370000D02*
X52625000Y-56400000D01*
X39010000Y-56370000D02*
X31395000Y-56370000D01*
X32300000Y-63080000D02*
X39010000Y-56370000D01*
X52595000Y-56370000D02*
X52545000Y-56370000D01*
X49575000Y-50400000D02*
X43605000Y-56370000D01*
X39010000Y-56370000D02*
X52545000Y-56370000D01*
X43605000Y-56370000D02*
X39010000Y-56370000D01*
X32300000Y-65500000D02*
X32300000Y-63080000D01*
X31395000Y-56370000D02*
X26575000Y-51550000D01*
X52680000Y-56370000D02*
X52655000Y-56370000D01*
X32300000Y-65500000D02*
X31600000Y-65500000D01*
X26200000Y-50950000D02*
X26200000Y-51175000D01*
X58650000Y-50400000D02*
X52680000Y-56370000D01*
X52625000Y-56400000D02*
X52595000Y-56370000D01*
X26200000Y-51175000D02*
X26575000Y-51550000D01*
X113900000Y-51450000D02*
X115550000Y-51450000D01*
X118750000Y-54625000D02*
X118500000Y-54375000D01*
X118750000Y-55050000D02*
X118750000Y-54625000D01*
X115550000Y-51450000D02*
X118500000Y-54400000D01*
X124800000Y-40400000D02*
X122900000Y-40400000D01*
X124800000Y-40400000D02*
X125450000Y-40400000D01*
X122900000Y-40400000D02*
X122850000Y-40350000D01*
X127250000Y-45500000D02*
X130350000Y-42400000D01*
X127250000Y-53350000D02*
X127250000Y-45500000D01*
D15*
X43075000Y-50225000D02*
X42490000Y-50810000D01*
X42490000Y-50810000D02*
X39160000Y-50810000D01*
X41770000Y-53680000D02*
X39140000Y-53680000D01*
X42775000Y-52675000D02*
X41770000Y-53680000D01*
X43275000Y-59825000D02*
X40590000Y-62510000D01*
X40590000Y-62510000D02*
X39060000Y-62510000D01*
D14*
X32050000Y-25900000D02*
X43950000Y-25900000D01*
X24750000Y-42800000D02*
X24750000Y-33200000D01*
X24750000Y-33200000D02*
X32050000Y-25900000D01*
X85475000Y-53875000D02*
X86200000Y-53875000D01*
X58550000Y-40525000D02*
X71900000Y-53875000D01*
X58550000Y-40500000D02*
X58550000Y-40525000D01*
X71900000Y-53875000D02*
X85475000Y-53875000D01*
X43950000Y-25900000D02*
X58550000Y-40500000D01*
X120400000Y-41800000D02*
X120400000Y-42650000D01*
X103850000Y-57700000D02*
X104350000Y-57200000D01*
X120400000Y-42650000D02*
X120400000Y-43300000D01*
X118950000Y-40350000D02*
X120400000Y-41800000D01*
X103850000Y-57700000D02*
X102800000Y-58750000D01*
X77050000Y-59500000D02*
X77050000Y-60400000D01*
X102800000Y-58750000D02*
X77800000Y-58750000D01*
X77800000Y-58750000D02*
X77050000Y-59500000D01*
%TA.AperFunction,Conductor*%
G36*
X46474106Y-24187965D02*
G01*
X46511769Y-24209477D01*
X49107632Y-26360335D01*
X68630497Y-42536423D01*
X68666089Y-42565913D01*
X68676605Y-42577570D01*
X68679681Y-42579625D01*
X68681349Y-42583651D01*
X68693640Y-42588741D01*
X68693641Y-42588742D01*
X68693572Y-42588906D01*
X68694949Y-42589826D01*
X68695515Y-42590295D01*
X68695767Y-42590372D01*
X68695769Y-42590374D01*
X68697196Y-42590814D01*
X68700105Y-42591862D01*
X68701815Y-42592238D01*
X68702855Y-42592559D01*
X68720000Y-42599661D01*
X68722508Y-42598621D01*
X68725102Y-42599422D01*
X68741506Y-42590752D01*
X68742528Y-42590328D01*
X68744189Y-42589796D01*
X68746986Y-42588482D01*
X68748606Y-42587812D01*
X68749138Y-42587279D01*
X68750408Y-42586247D01*
X68750326Y-42586091D01*
X68751115Y-42585674D01*
X68751114Y-42585674D01*
X68762090Y-42579875D01*
X68763375Y-42575708D01*
X68766249Y-42573372D01*
X68775627Y-42560789D01*
X71244012Y-40092404D01*
X71284889Y-40065091D01*
X71333107Y-40055500D01*
X91506892Y-40055500D01*
X91555110Y-40065091D01*
X91595987Y-40092405D01*
X94064370Y-42560787D01*
X94073753Y-42573376D01*
X94076625Y-42575710D01*
X94077910Y-42579875D01*
X94088881Y-42585672D01*
X94088882Y-42585673D01*
X94089675Y-42586092D01*
X94089591Y-42586249D01*
X94090876Y-42587293D01*
X94091394Y-42587811D01*
X94093007Y-42588479D01*
X94095788Y-42589785D01*
X94097436Y-42590313D01*
X94098484Y-42590747D01*
X94114898Y-42599422D01*
X94117492Y-42598621D01*
X94120000Y-42599660D01*
X94137139Y-42592560D01*
X94138171Y-42592241D01*
X94139895Y-42591862D01*
X94142825Y-42590806D01*
X94144485Y-42590295D01*
X94145058Y-42589819D01*
X94146426Y-42588906D01*
X94146358Y-42588742D01*
X94146358Y-42588741D01*
X94158651Y-42583651D01*
X94160319Y-42579622D01*
X94163398Y-42577566D01*
X94173905Y-42565917D01*
X96848288Y-40350000D01*
X118067666Y-40350000D01*
X118068356Y-40356565D01*
X118082653Y-40492598D01*
X118086947Y-40533448D01*
X118088984Y-40539720D01*
X118088986Y-40539725D01*
X118141905Y-40702593D01*
X118141908Y-40702600D01*
X118143948Y-40708878D01*
X118236177Y-40868623D01*
X118240595Y-40873530D01*
X118240596Y-40873531D01*
X118355181Y-41000791D01*
X118359603Y-41005702D01*
X118508833Y-41114124D01*
X118616386Y-41162009D01*
X118671317Y-41186467D01*
X118671320Y-41186468D01*
X118677344Y-41189150D01*
X118857771Y-41227500D01*
X119035626Y-41227500D01*
X119042229Y-41227500D01*
X119182650Y-41197653D01*
X119244630Y-41200089D01*
X119297939Y-41231805D01*
X119985595Y-41919461D01*
X120012909Y-41960338D01*
X120022500Y-42008556D01*
X120022500Y-42364743D01*
X120011113Y-42417086D01*
X119967046Y-42513576D01*
X119967044Y-42513581D01*
X119963303Y-42521774D01*
X119962021Y-42530684D01*
X119962020Y-42530691D01*
X119946612Y-42637861D01*
X119944867Y-42650000D01*
X119946149Y-42658917D01*
X119962020Y-42769308D01*
X119962021Y-42769313D01*
X119963303Y-42778226D01*
X119967045Y-42786419D01*
X119967046Y-42786423D01*
X120011113Y-42882914D01*
X120022500Y-42935257D01*
X120022500Y-43014743D01*
X120011113Y-43067086D01*
X119967046Y-43163576D01*
X119967044Y-43163581D01*
X119963303Y-43171774D01*
X119962021Y-43180684D01*
X119962020Y-43180691D01*
X119952349Y-43247961D01*
X119944867Y-43300000D01*
X119946149Y-43308917D01*
X119962020Y-43419308D01*
X119962021Y-43419313D01*
X119963303Y-43428226D01*
X119967045Y-43436419D01*
X119967046Y-43436423D01*
X120013372Y-43537861D01*
X120017118Y-43546063D01*
X120101951Y-43643967D01*
X120210931Y-43714004D01*
X120335228Y-43750500D01*
X120455763Y-43750500D01*
X120464772Y-43750500D01*
X120589069Y-43714004D01*
X120698049Y-43643967D01*
X120782882Y-43546063D01*
X120836697Y-43428226D01*
X120855133Y-43300000D01*
X120836697Y-43171774D01*
X120788886Y-43067085D01*
X120777500Y-43014743D01*
X120777500Y-42935257D01*
X120788887Y-42882914D01*
X120819199Y-42816541D01*
X120836697Y-42778226D01*
X120855133Y-42650000D01*
X120836697Y-42521774D01*
X120788886Y-42417085D01*
X120777500Y-42364743D01*
X120777500Y-41852218D01*
X120780182Y-41826361D01*
X120780186Y-41826341D01*
X120782393Y-41815816D01*
X120778467Y-41784326D01*
X120778143Y-41779109D01*
X120777931Y-41779127D01*
X120777500Y-41773928D01*
X120777500Y-41768719D01*
X120774069Y-41748159D01*
X120773317Y-41743003D01*
X120768101Y-41701158D01*
X120766810Y-41690797D01*
X120763298Y-41683613D01*
X120761983Y-41675731D01*
X120736948Y-41629471D01*
X120734582Y-41624874D01*
X120732562Y-41620743D01*
X120711477Y-41577611D01*
X120705823Y-41571957D01*
X120702020Y-41564929D01*
X120663320Y-41529303D01*
X120659563Y-41525697D01*
X119831910Y-40698044D01*
X119798486Y-40638362D01*
X119801171Y-40570013D01*
X119813053Y-40533448D01*
X119832334Y-40350000D01*
X121967666Y-40350000D01*
X121968356Y-40356565D01*
X121982653Y-40492598D01*
X121986947Y-40533448D01*
X121988984Y-40539720D01*
X121988986Y-40539725D01*
X122041905Y-40702593D01*
X122041908Y-40702600D01*
X122043948Y-40708878D01*
X122136177Y-40868623D01*
X122140595Y-40873530D01*
X122140596Y-40873531D01*
X122255181Y-41000791D01*
X122259603Y-41005702D01*
X122408833Y-41114124D01*
X122516386Y-41162009D01*
X122571317Y-41186467D01*
X122571320Y-41186468D01*
X122577344Y-41189150D01*
X122757771Y-41227500D01*
X122935626Y-41227500D01*
X122942229Y-41227500D01*
X123122656Y-41189150D01*
X123291167Y-41114124D01*
X123440397Y-41005702D01*
X123563823Y-40868623D01*
X123580061Y-40840497D01*
X123626179Y-40794381D01*
X123689179Y-40777500D01*
X124517133Y-40777500D01*
X124552632Y-40782604D01*
X124585255Y-40797503D01*
X124610931Y-40814004D01*
X124735228Y-40850500D01*
X124855763Y-40850500D01*
X124864772Y-40850500D01*
X124989069Y-40814004D01*
X125014744Y-40797503D01*
X125047368Y-40782604D01*
X125082867Y-40777500D01*
X125167133Y-40777500D01*
X125202632Y-40782604D01*
X125235255Y-40797503D01*
X125260931Y-40814004D01*
X125385228Y-40850500D01*
X125505763Y-40850500D01*
X125514772Y-40850500D01*
X125639069Y-40814004D01*
X125748049Y-40743967D01*
X125832882Y-40646063D01*
X125886697Y-40528226D01*
X125905133Y-40400000D01*
X125886697Y-40271774D01*
X125832882Y-40153937D01*
X125748049Y-40056033D01*
X125639069Y-39985996D01*
X125630425Y-39983458D01*
X125630423Y-39983457D01*
X125523416Y-39952038D01*
X125523415Y-39952037D01*
X125514772Y-39949500D01*
X125385228Y-39949500D01*
X125376585Y-39952037D01*
X125376583Y-39952038D01*
X125269576Y-39983457D01*
X125269571Y-39983458D01*
X125260931Y-39985996D01*
X125253355Y-39990864D01*
X125253350Y-39990867D01*
X125235255Y-40002497D01*
X125202632Y-40017396D01*
X125167133Y-40022500D01*
X125082867Y-40022500D01*
X125047368Y-40017396D01*
X125014745Y-40002497D01*
X124996649Y-39990867D01*
X124996646Y-39990866D01*
X124989069Y-39985996D01*
X124980425Y-39983458D01*
X124980423Y-39983457D01*
X124873416Y-39952038D01*
X124873415Y-39952037D01*
X124864772Y-39949500D01*
X124735228Y-39949500D01*
X124726585Y-39952037D01*
X124726583Y-39952038D01*
X124619576Y-39983457D01*
X124619571Y-39983458D01*
X124610931Y-39985996D01*
X124603355Y-39990864D01*
X124603350Y-39990867D01*
X124585255Y-40002497D01*
X124552632Y-40017396D01*
X124517133Y-40022500D01*
X123746914Y-40022500D01*
X123683914Y-40005619D01*
X123637795Y-39959500D01*
X123570928Y-39843683D01*
X123563823Y-39831377D01*
X123440397Y-39694298D01*
X123291167Y-39585876D01*
X123260614Y-39572273D01*
X123128682Y-39513532D01*
X123128674Y-39513529D01*
X123122656Y-39510850D01*
X123116206Y-39509479D01*
X123116203Y-39509478D01*
X122948686Y-39473872D01*
X122948681Y-39473871D01*
X122942229Y-39472500D01*
X122757771Y-39472500D01*
X122751319Y-39473871D01*
X122751313Y-39473872D01*
X122583796Y-39509478D01*
X122583790Y-39509479D01*
X122577344Y-39510850D01*
X122571328Y-39513528D01*
X122571317Y-39513532D01*
X122414863Y-39583191D01*
X122414860Y-39583192D01*
X122408833Y-39585876D01*
X122259603Y-39694298D01*
X122255186Y-39699203D01*
X122255181Y-39699208D01*
X122140596Y-39826468D01*
X122140591Y-39826474D01*
X122136177Y-39831377D01*
X122132878Y-39837090D01*
X122132875Y-39837095D01*
X122050918Y-39979049D01*
X122043948Y-39991122D01*
X122041909Y-39997396D01*
X122041905Y-39997406D01*
X121988986Y-40160274D01*
X121988984Y-40160281D01*
X121986947Y-40166552D01*
X121986257Y-40173113D01*
X121986257Y-40173115D01*
X121976749Y-40263576D01*
X121967666Y-40350000D01*
X119832334Y-40350000D01*
X119813053Y-40166552D01*
X119766317Y-40022715D01*
X119758094Y-39997406D01*
X119758093Y-39997404D01*
X119756052Y-39991122D01*
X119663823Y-39831377D01*
X119540397Y-39694298D01*
X119391167Y-39585876D01*
X119360614Y-39572273D01*
X119228682Y-39513532D01*
X119228674Y-39513529D01*
X119222656Y-39510850D01*
X119216206Y-39509479D01*
X119216203Y-39509478D01*
X119048686Y-39473872D01*
X119048681Y-39473871D01*
X119042229Y-39472500D01*
X118857771Y-39472500D01*
X118851319Y-39473871D01*
X118851313Y-39473872D01*
X118683796Y-39509478D01*
X118683790Y-39509479D01*
X118677344Y-39510850D01*
X118671328Y-39513528D01*
X118671317Y-39513532D01*
X118514863Y-39583191D01*
X118514860Y-39583192D01*
X118508833Y-39585876D01*
X118359603Y-39694298D01*
X118355186Y-39699203D01*
X118355181Y-39699208D01*
X118240596Y-39826468D01*
X118240591Y-39826474D01*
X118236177Y-39831377D01*
X118232878Y-39837090D01*
X118232875Y-39837095D01*
X118150918Y-39979049D01*
X118143948Y-39991122D01*
X118141909Y-39997396D01*
X118141905Y-39997406D01*
X118088986Y-40160274D01*
X118088984Y-40160281D01*
X118086947Y-40166552D01*
X118086257Y-40173113D01*
X118086257Y-40173115D01*
X118076749Y-40263576D01*
X118067666Y-40350000D01*
X96848288Y-40350000D01*
X113732368Y-26360335D01*
X116328231Y-24209477D01*
X116365894Y-24187965D01*
X116408621Y-24180500D01*
X132135170Y-24180500D01*
X132189752Y-24192936D01*
X132233559Y-24227788D01*
X133889331Y-26297503D01*
X144832442Y-39976393D01*
X144841889Y-39988201D01*
X144862397Y-40025206D01*
X144869500Y-40066913D01*
X144869500Y-65343087D01*
X144862397Y-65384794D01*
X144841889Y-65421798D01*
X144380959Y-65997961D01*
X132233559Y-81182212D01*
X132189752Y-81217064D01*
X132135170Y-81229500D01*
X116408621Y-81229500D01*
X116365894Y-81222035D01*
X116328231Y-81200523D01*
X97980312Y-65997961D01*
X94173909Y-62844084D01*
X94163399Y-62832434D01*
X94160319Y-62830375D01*
X94158651Y-62826349D01*
X94147187Y-62821600D01*
X94147185Y-62821599D01*
X94146358Y-62821257D01*
X94146426Y-62821092D01*
X94145047Y-62820171D01*
X94144485Y-62819705D01*
X94144233Y-62819627D01*
X94142764Y-62819174D01*
X94139908Y-62818144D01*
X94138221Y-62817773D01*
X94137139Y-62817439D01*
X94120000Y-62810340D01*
X94117492Y-62811378D01*
X94114898Y-62810578D01*
X94098484Y-62819252D01*
X94097436Y-62819686D01*
X94095806Y-62820208D01*
X94093087Y-62821487D01*
X94091633Y-62822089D01*
X94091630Y-62822091D01*
X94091394Y-62822189D01*
X94090888Y-62822694D01*
X94089591Y-62823749D01*
X94089675Y-62823907D01*
X94088882Y-62824325D01*
X94088878Y-62824328D01*
X94077910Y-62830125D01*
X94076625Y-62834287D01*
X94073750Y-62836625D01*
X94064369Y-62849212D01*
X91595987Y-65317595D01*
X91555110Y-65344909D01*
X91506892Y-65354500D01*
X81430045Y-65354500D01*
X71333107Y-65354500D01*
X71284889Y-65344909D01*
X71244012Y-65317595D01*
X69883439Y-63957021D01*
X74149500Y-63957021D01*
X74151321Y-63964412D01*
X74151322Y-63964414D01*
X74186933Y-64108893D01*
X74186934Y-64108897D01*
X74188758Y-64116295D01*
X74192301Y-64123046D01*
X74192302Y-64123048D01*
X74257637Y-64247533D01*
X74264992Y-64261546D01*
X74270049Y-64267254D01*
X74270051Y-64267257D01*
X74368714Y-64378624D01*
X74373771Y-64384332D01*
X74508774Y-64477518D01*
X74662155Y-64535688D01*
X74669722Y-64536606D01*
X74669723Y-64536607D01*
X74683995Y-64538339D01*
X74784143Y-64550500D01*
X74862048Y-64550500D01*
X74865857Y-64550500D01*
X74987845Y-64535688D01*
X75141226Y-64477518D01*
X75276229Y-64384332D01*
X75385008Y-64261546D01*
X75461242Y-64116295D01*
X75500500Y-63957021D01*
X77149500Y-63957021D01*
X77151321Y-63964412D01*
X77151322Y-63964414D01*
X77186933Y-64108893D01*
X77186934Y-64108897D01*
X77188758Y-64116295D01*
X77192301Y-64123046D01*
X77192302Y-64123048D01*
X77257637Y-64247533D01*
X77264992Y-64261546D01*
X77270049Y-64267254D01*
X77270051Y-64267257D01*
X77368714Y-64378624D01*
X77373771Y-64384332D01*
X77508774Y-64477518D01*
X77662155Y-64535688D01*
X77669722Y-64536606D01*
X77669723Y-64536607D01*
X77683995Y-64538339D01*
X77784143Y-64550500D01*
X77862048Y-64550500D01*
X77865857Y-64550500D01*
X77987845Y-64535688D01*
X78141226Y-64477518D01*
X78276229Y-64384332D01*
X78385008Y-64261546D01*
X78414751Y-64204876D01*
X82847500Y-64204876D01*
X82847925Y-64208519D01*
X82847926Y-64208522D01*
X82861437Y-64324122D01*
X82861438Y-64324126D01*
X82862290Y-64331415D01*
X82920456Y-64491224D01*
X83013908Y-64633312D01*
X83137609Y-64750018D01*
X83284890Y-64835050D01*
X83447811Y-64883825D01*
X83617588Y-64893714D01*
X83785070Y-64864182D01*
X83941226Y-64796823D01*
X84077640Y-64695267D01*
X84186956Y-64564989D01*
X84263281Y-64413014D01*
X84302500Y-64247533D01*
X84302500Y-64204876D01*
X89847500Y-64204876D01*
X89847925Y-64208519D01*
X89847926Y-64208522D01*
X89861437Y-64324122D01*
X89861438Y-64324126D01*
X89862290Y-64331415D01*
X89920456Y-64491224D01*
X90013908Y-64633312D01*
X90137609Y-64750018D01*
X90284890Y-64835050D01*
X90447811Y-64883825D01*
X90617588Y-64893714D01*
X90785070Y-64864182D01*
X90941226Y-64796823D01*
X91077640Y-64695267D01*
X91186956Y-64564989D01*
X91263281Y-64413014D01*
X91302500Y-64247533D01*
X91302500Y-63420124D01*
X91287710Y-63293585D01*
X91229544Y-63133776D01*
X91136092Y-62991688D01*
X91039438Y-62900500D01*
X91017731Y-62880020D01*
X91017730Y-62880019D01*
X91012391Y-62874982D01*
X90865110Y-62789950D01*
X90858077Y-62787844D01*
X90858076Y-62787844D01*
X90709219Y-62743279D01*
X90709213Y-62743278D01*
X90702189Y-62741175D01*
X90694863Y-62740748D01*
X90694862Y-62740748D01*
X90539738Y-62731712D01*
X90539731Y-62731712D01*
X90532412Y-62731286D01*
X90525187Y-62732559D01*
X90525185Y-62732560D01*
X90372154Y-62759544D01*
X90372152Y-62759544D01*
X90364930Y-62760818D01*
X90358197Y-62763721D01*
X90358191Y-62763724D01*
X90215517Y-62825268D01*
X90215514Y-62825269D01*
X90208774Y-62828177D01*
X90202892Y-62832555D01*
X90202885Y-62832560D01*
X90078241Y-62925354D01*
X90078237Y-62925357D01*
X90072360Y-62929733D01*
X90067649Y-62935346D01*
X90067646Y-62935350D01*
X89967760Y-63054390D01*
X89967757Y-63054393D01*
X89963044Y-63060011D01*
X89959752Y-63066564D01*
X89959751Y-63066567D01*
X89890013Y-63205426D01*
X89890011Y-63205430D01*
X89886719Y-63211986D01*
X89885026Y-63219128D01*
X89885026Y-63219129D01*
X89849191Y-63370328D01*
X89849190Y-63370335D01*
X89847500Y-63377467D01*
X89847500Y-64204876D01*
X84302500Y-64204876D01*
X84302500Y-63420124D01*
X84287710Y-63293585D01*
X84229544Y-63133776D01*
X84136092Y-62991688D01*
X84039438Y-62900500D01*
X84017731Y-62880020D01*
X84017730Y-62880019D01*
X84012391Y-62874982D01*
X83865110Y-62789950D01*
X83858077Y-62787844D01*
X83858076Y-62787844D01*
X83709219Y-62743279D01*
X83709213Y-62743278D01*
X83702189Y-62741175D01*
X83694863Y-62740748D01*
X83694862Y-62740748D01*
X83539738Y-62731712D01*
X83539731Y-62731712D01*
X83532412Y-62731286D01*
X83525187Y-62732559D01*
X83525185Y-62732560D01*
X83372154Y-62759544D01*
X83372152Y-62759544D01*
X83364930Y-62760818D01*
X83358197Y-62763721D01*
X83358191Y-62763724D01*
X83215517Y-62825268D01*
X83215514Y-62825269D01*
X83208774Y-62828177D01*
X83202892Y-62832555D01*
X83202885Y-62832560D01*
X83078241Y-62925354D01*
X83078237Y-62925357D01*
X83072360Y-62929733D01*
X83067649Y-62935346D01*
X83067646Y-62935350D01*
X82967760Y-63054390D01*
X82967757Y-63054393D01*
X82963044Y-63060011D01*
X82959752Y-63066564D01*
X82959751Y-63066567D01*
X82890013Y-63205426D01*
X82890011Y-63205430D01*
X82886719Y-63211986D01*
X82885026Y-63219128D01*
X82885026Y-63219129D01*
X82849191Y-63370328D01*
X82849190Y-63370335D01*
X82847500Y-63377467D01*
X82847500Y-64204876D01*
X78414751Y-64204876D01*
X78461242Y-64116295D01*
X78500500Y-63957021D01*
X78500500Y-63792979D01*
X78461242Y-63633705D01*
X78385008Y-63488454D01*
X78295570Y-63387500D01*
X78281285Y-63371375D01*
X78281284Y-63371374D01*
X78276229Y-63365668D01*
X78269956Y-63361338D01*
X78269955Y-63361337D01*
X78147501Y-63276813D01*
X78147499Y-63276811D01*
X78141226Y-63272482D01*
X78134098Y-63269779D01*
X78134095Y-63269777D01*
X77994973Y-63217015D01*
X77994970Y-63217014D01*
X77987845Y-63214312D01*
X77980283Y-63213393D01*
X77980276Y-63213392D01*
X77869640Y-63199959D01*
X77869634Y-63199958D01*
X77865857Y-63199500D01*
X77784143Y-63199500D01*
X77780366Y-63199958D01*
X77780359Y-63199959D01*
X77669723Y-63213392D01*
X77669714Y-63213394D01*
X77662155Y-63214312D01*
X77655031Y-63217013D01*
X77655026Y-63217015D01*
X77515904Y-63269777D01*
X77515897Y-63269780D01*
X77508774Y-63272482D01*
X77502504Y-63276809D01*
X77502498Y-63276813D01*
X77380044Y-63361337D01*
X77380038Y-63361341D01*
X77373771Y-63365668D01*
X77368718Y-63371370D01*
X77368714Y-63371375D01*
X77270051Y-63482742D01*
X77270046Y-63482749D01*
X77264992Y-63488454D01*
X77261448Y-63495204D01*
X77261446Y-63495209D01*
X77192302Y-63626951D01*
X77192299Y-63626956D01*
X77188758Y-63633705D01*
X77186935Y-63641100D01*
X77186933Y-63641106D01*
X77151322Y-63785585D01*
X77149500Y-63792979D01*
X77149500Y-63957021D01*
X75500500Y-63957021D01*
X75500500Y-63792979D01*
X75461242Y-63633705D01*
X75385008Y-63488454D01*
X75295570Y-63387500D01*
X75281285Y-63371375D01*
X75281284Y-63371374D01*
X75276229Y-63365668D01*
X75269956Y-63361338D01*
X75269955Y-63361337D01*
X75147501Y-63276813D01*
X75147499Y-63276811D01*
X75141226Y-63272482D01*
X75134098Y-63269779D01*
X75134095Y-63269777D01*
X74994973Y-63217015D01*
X74994970Y-63217014D01*
X74987845Y-63214312D01*
X74980283Y-63213393D01*
X74980276Y-63213392D01*
X74869640Y-63199959D01*
X74869634Y-63199958D01*
X74865857Y-63199500D01*
X74784143Y-63199500D01*
X74780366Y-63199958D01*
X74780359Y-63199959D01*
X74669723Y-63213392D01*
X74669714Y-63213394D01*
X74662155Y-63214312D01*
X74655031Y-63217013D01*
X74655026Y-63217015D01*
X74515904Y-63269777D01*
X74515897Y-63269780D01*
X74508774Y-63272482D01*
X74502504Y-63276809D01*
X74502498Y-63276813D01*
X74380044Y-63361337D01*
X74380038Y-63361341D01*
X74373771Y-63365668D01*
X74368718Y-63371370D01*
X74368714Y-63371375D01*
X74270051Y-63482742D01*
X74270046Y-63482749D01*
X74264992Y-63488454D01*
X74261448Y-63495204D01*
X74261446Y-63495209D01*
X74192302Y-63626951D01*
X74192299Y-63626956D01*
X74188758Y-63633705D01*
X74186935Y-63641100D01*
X74186933Y-63641106D01*
X74151322Y-63785585D01*
X74149500Y-63792979D01*
X74149500Y-63957021D01*
X69883439Y-63957021D01*
X68775630Y-62849212D01*
X68766251Y-62836628D01*
X68763374Y-62834289D01*
X68762090Y-62830125D01*
X68751115Y-62824325D01*
X68751114Y-62824324D01*
X68750326Y-62823908D01*
X68750408Y-62823751D01*
X68749131Y-62822713D01*
X68748606Y-62822188D01*
X68746945Y-62821500D01*
X68744184Y-62820202D01*
X68742536Y-62819673D01*
X68741506Y-62819247D01*
X68725102Y-62810578D01*
X68722508Y-62811378D01*
X68720000Y-62810339D01*
X68702855Y-62817440D01*
X68701782Y-62817771D01*
X68700109Y-62818139D01*
X68697276Y-62819161D01*
X68695763Y-62819628D01*
X68695761Y-62819628D01*
X68695515Y-62819705D01*
X68694960Y-62820164D01*
X68693572Y-62821092D01*
X68693641Y-62821257D01*
X68692812Y-62821600D01*
X68692810Y-62821601D01*
X68681349Y-62826349D01*
X68679681Y-62830372D01*
X68676603Y-62832430D01*
X68666089Y-62844085D01*
X46511769Y-81200523D01*
X46474106Y-81222035D01*
X46431379Y-81229500D01*
X30704831Y-81229500D01*
X30650249Y-81217064D01*
X30606442Y-81182212D01*
X18459041Y-65997961D01*
X17998110Y-65421798D01*
X17977603Y-65384794D01*
X17970500Y-65343087D01*
X17970500Y-50950000D01*
X25744867Y-50950000D01*
X25746149Y-50958917D01*
X25762020Y-51069308D01*
X25762021Y-51069313D01*
X25763303Y-51078226D01*
X25767045Y-51086419D01*
X25767046Y-51086423D01*
X25815986Y-51193584D01*
X25825663Y-51225237D01*
X25825942Y-51226913D01*
X25826684Y-51232015D01*
X25833190Y-51284203D01*
X25836701Y-51291385D01*
X25838017Y-51299269D01*
X25863060Y-51345545D01*
X25865429Y-51350149D01*
X25888524Y-51397389D01*
X25894175Y-51403040D01*
X25897980Y-51410071D01*
X25905660Y-51417141D01*
X25905661Y-51417142D01*
X25936663Y-51445681D01*
X25940422Y-51449287D01*
X26104545Y-51613411D01*
X26136344Y-51667004D01*
X26137020Y-51669308D01*
X26138303Y-51678226D01*
X26192118Y-51796063D01*
X26276951Y-51893967D01*
X26385931Y-51964004D01*
X26453051Y-51983711D01*
X26506646Y-52015511D01*
X31091141Y-56600007D01*
X31107527Y-56620184D01*
X31107713Y-56620470D01*
X31107717Y-56620474D01*
X31113424Y-56629209D01*
X31133305Y-56644683D01*
X31138470Y-56648703D01*
X31142390Y-56652165D01*
X31142529Y-56652002D01*
X31146496Y-56655362D01*
X31150186Y-56659052D01*
X31154429Y-56662081D01*
X31154432Y-56662084D01*
X31167170Y-56671179D01*
X31171342Y-56674289D01*
X31212845Y-56706592D01*
X31220406Y-56709187D01*
X31226911Y-56713832D01*
X31277335Y-56728843D01*
X31282248Y-56730418D01*
X31322127Y-56744109D01*
X31322129Y-56744109D01*
X31332006Y-56747500D01*
X31340002Y-56747500D01*
X31347660Y-56749780D01*
X31395939Y-56747783D01*
X31400180Y-56747608D01*
X31405386Y-56747500D01*
X37794445Y-56747500D01*
X37851648Y-56761233D01*
X37896381Y-56799439D01*
X37918894Y-56853789D01*
X37914278Y-56912436D01*
X37883540Y-56962595D01*
X32069990Y-62776142D01*
X32049821Y-62792523D01*
X32049529Y-62792713D01*
X32049522Y-62792718D01*
X32040791Y-62798424D01*
X32034384Y-62806654D01*
X32034382Y-62806657D01*
X32021292Y-62823475D01*
X32017883Y-62827441D01*
X32017993Y-62827534D01*
X32014634Y-62831498D01*
X32010948Y-62835186D01*
X32007924Y-62839420D01*
X32007918Y-62839428D01*
X31998810Y-62852184D01*
X31995704Y-62856349D01*
X31969819Y-62889607D01*
X31969817Y-62889609D01*
X31963408Y-62897845D01*
X31960812Y-62905406D01*
X31956168Y-62911911D01*
X31953190Y-62921911D01*
X31953189Y-62921915D01*
X31941159Y-62962320D01*
X31939572Y-62967273D01*
X31925889Y-63007131D01*
X31925888Y-63007136D01*
X31922500Y-63017006D01*
X31922500Y-63024998D01*
X31920219Y-63032660D01*
X31920650Y-63043091D01*
X31920650Y-63043095D01*
X31922392Y-63085193D01*
X31922500Y-63090400D01*
X31922500Y-64996500D01*
X31905619Y-65059500D01*
X31859500Y-65105619D01*
X31796500Y-65122500D01*
X31711219Y-65122500D01*
X31675722Y-65117396D01*
X31623418Y-65102038D01*
X31623413Y-65102037D01*
X31614772Y-65099500D01*
X31485228Y-65099500D01*
X31476585Y-65102037D01*
X31476583Y-65102038D01*
X31369576Y-65133457D01*
X31369571Y-65133458D01*
X31360931Y-65135996D01*
X31353357Y-65140863D01*
X31353347Y-65140868D01*
X31268120Y-65195641D01*
X31200000Y-65215643D01*
X31131880Y-65195641D01*
X31046652Y-65140868D01*
X31046645Y-65140864D01*
X31039069Y-65135996D01*
X31030425Y-65133458D01*
X31030423Y-65133457D01*
X30923416Y-65102038D01*
X30923415Y-65102037D01*
X30914772Y-65099500D01*
X30785228Y-65099500D01*
X30776585Y-65102037D01*
X30776583Y-65102038D01*
X30669576Y-65133457D01*
X30669571Y-65133458D01*
X30660931Y-65135996D01*
X30653352Y-65140866D01*
X30653351Y-65140867D01*
X30559531Y-65201161D01*
X30559528Y-65201163D01*
X30551951Y-65206033D01*
X30546050Y-65212842D01*
X30546050Y-65212843D01*
X30503341Y-65262133D01*
X30467118Y-65303937D01*
X30463374Y-65312134D01*
X30463372Y-65312138D01*
X30417046Y-65413576D01*
X30417044Y-65413581D01*
X30413303Y-65421774D01*
X30412021Y-65430684D01*
X30412020Y-65430691D01*
X30396149Y-65541083D01*
X30394867Y-65550000D01*
X30396149Y-65558917D01*
X30412020Y-65669308D01*
X30412021Y-65669313D01*
X30413303Y-65678226D01*
X30417045Y-65686419D01*
X30417046Y-65686423D01*
X30444283Y-65746063D01*
X30467118Y-65796063D01*
X30551951Y-65893967D01*
X30660931Y-65964004D01*
X30785228Y-66000500D01*
X30905763Y-66000500D01*
X30914772Y-66000500D01*
X31039069Y-65964004D01*
X31131882Y-65904356D01*
X31176154Y-65886633D01*
X31223846Y-65886633D01*
X31268117Y-65904356D01*
X31327049Y-65942229D01*
X31353351Y-65959133D01*
X31353352Y-65959133D01*
X31360931Y-65964004D01*
X31485228Y-66000500D01*
X31605763Y-66000500D01*
X31614772Y-66000500D01*
X31739069Y-65964004D01*
X31842549Y-65897501D01*
X31875171Y-65882604D01*
X31910669Y-65877500D01*
X32042133Y-65877500D01*
X32077632Y-65882604D01*
X32110255Y-65897503D01*
X32135931Y-65914004D01*
X32260228Y-65950500D01*
X32380763Y-65950500D01*
X32389772Y-65950500D01*
X32514069Y-65914004D01*
X32623049Y-65843967D01*
X32707882Y-65746063D01*
X32761697Y-65628226D01*
X32780133Y-65500000D01*
X32761697Y-65371774D01*
X32707882Y-65253937D01*
X32701981Y-65247127D01*
X32697502Y-65240157D01*
X32677500Y-65172037D01*
X32677500Y-63288555D01*
X32687091Y-63240337D01*
X32714405Y-63199460D01*
X33403865Y-62510000D01*
X38177666Y-62510000D01*
X38196947Y-62693448D01*
X38198984Y-62699720D01*
X38198986Y-62699725D01*
X38251905Y-62862593D01*
X38251908Y-62862600D01*
X38253948Y-62868878D01*
X38321942Y-62986647D01*
X38333768Y-63007131D01*
X38346177Y-63028623D01*
X38350595Y-63033530D01*
X38350596Y-63033531D01*
X38401801Y-63090400D01*
X38469603Y-63165702D01*
X38618833Y-63274124D01*
X38726386Y-63322009D01*
X38781317Y-63346467D01*
X38781320Y-63346468D01*
X38787344Y-63349150D01*
X38967771Y-63387500D01*
X39145626Y-63387500D01*
X39152229Y-63387500D01*
X39332656Y-63349150D01*
X39501167Y-63274124D01*
X39650397Y-63165702D01*
X39773823Y-63028623D01*
X39847794Y-62900500D01*
X39893914Y-62854381D01*
X39956914Y-62837500D01*
X40570206Y-62837500D01*
X40581188Y-62837979D01*
X40618984Y-62841287D01*
X40655646Y-62831462D01*
X40666373Y-62829085D01*
X40671523Y-62828177D01*
X40703739Y-62822497D01*
X40713289Y-62816982D01*
X40716637Y-62815764D01*
X40719886Y-62814249D01*
X40730543Y-62811394D01*
X40761627Y-62789627D01*
X40770887Y-62783727D01*
X40803760Y-62764750D01*
X40828176Y-62735649D01*
X40835561Y-62727591D01*
X42513153Y-61050000D01*
X76594867Y-61050000D01*
X76596149Y-61058917D01*
X76612020Y-61169308D01*
X76612021Y-61169313D01*
X76613303Y-61178226D01*
X76617045Y-61186419D01*
X76617046Y-61186423D01*
X76663372Y-61287861D01*
X76667118Y-61296063D01*
X76751951Y-61393967D01*
X76860931Y-61464004D01*
X76985228Y-61500500D01*
X77105763Y-61500500D01*
X77114772Y-61500500D01*
X77239069Y-61464004D01*
X77348049Y-61393967D01*
X77432882Y-61296063D01*
X77486697Y-61178226D01*
X77496147Y-61112500D01*
X83717804Y-61112500D01*
X83736536Y-61290721D01*
X83791912Y-61461153D01*
X83881514Y-61616347D01*
X84001424Y-61749521D01*
X84146402Y-61854854D01*
X84310112Y-61927742D01*
X84485399Y-61965000D01*
X84657998Y-61965000D01*
X84664601Y-61965000D01*
X84839888Y-61927742D01*
X85003598Y-61854854D01*
X85148576Y-61749521D01*
X85268486Y-61616347D01*
X85358088Y-61461153D01*
X85413464Y-61290721D01*
X85432196Y-61112500D01*
X88717804Y-61112500D01*
X88736536Y-61290721D01*
X88791912Y-61461153D01*
X88881514Y-61616347D01*
X89001424Y-61749521D01*
X89146402Y-61854854D01*
X89310112Y-61927742D01*
X89485399Y-61965000D01*
X89657998Y-61965000D01*
X89664601Y-61965000D01*
X89839888Y-61927742D01*
X90003598Y-61854854D01*
X90148576Y-61749521D01*
X90268486Y-61616347D01*
X90358088Y-61461153D01*
X90413464Y-61290721D01*
X90432196Y-61112500D01*
X90413464Y-60934279D01*
X90358088Y-60763847D01*
X90268486Y-60608653D01*
X90148576Y-60475479D01*
X90143234Y-60471598D01*
X90143231Y-60471595D01*
X90070574Y-60418807D01*
X90003598Y-60370146D01*
X89839888Y-60297258D01*
X89833435Y-60295886D01*
X89833431Y-60295885D01*
X89671058Y-60261372D01*
X89671053Y-60261371D01*
X89664601Y-60260000D01*
X89485399Y-60260000D01*
X89478947Y-60261371D01*
X89478941Y-60261372D01*
X89316568Y-60295885D01*
X89316561Y-60295887D01*
X89310112Y-60297258D01*
X89304082Y-60299942D01*
X89304081Y-60299943D01*
X89152432Y-60367461D01*
X89152429Y-60367462D01*
X89146402Y-60370146D01*
X89141061Y-60374026D01*
X89141060Y-60374027D01*
X89006768Y-60471595D01*
X89006760Y-60471601D01*
X89001424Y-60475479D01*
X88997007Y-60480384D01*
X88997002Y-60480389D01*
X88885933Y-60603745D01*
X88881514Y-60608653D01*
X88878215Y-60614366D01*
X88878212Y-60614371D01*
X88795216Y-60758124D01*
X88791912Y-60763847D01*
X88789870Y-60770129D01*
X88789870Y-60770131D01*
X88743263Y-60913576D01*
X88736536Y-60934279D01*
X88717804Y-61112500D01*
X85432196Y-61112500D01*
X85413464Y-60934279D01*
X85358088Y-60763847D01*
X85268486Y-60608653D01*
X85148576Y-60475479D01*
X85143234Y-60471598D01*
X85143231Y-60471595D01*
X85070574Y-60418807D01*
X85003598Y-60370146D01*
X84839888Y-60297258D01*
X84833435Y-60295886D01*
X84833431Y-60295885D01*
X84671058Y-60261372D01*
X84671053Y-60261371D01*
X84664601Y-60260000D01*
X84485399Y-60260000D01*
X84478947Y-60261371D01*
X84478941Y-60261372D01*
X84316568Y-60295885D01*
X84316561Y-60295887D01*
X84310112Y-60297258D01*
X84304082Y-60299942D01*
X84304081Y-60299943D01*
X84152432Y-60367461D01*
X84152429Y-60367462D01*
X84146402Y-60370146D01*
X84141061Y-60374026D01*
X84141060Y-60374027D01*
X84006768Y-60471595D01*
X84006760Y-60471601D01*
X84001424Y-60475479D01*
X83997007Y-60480384D01*
X83997002Y-60480389D01*
X83885933Y-60603745D01*
X83881514Y-60608653D01*
X83878215Y-60614366D01*
X83878212Y-60614371D01*
X83795216Y-60758124D01*
X83791912Y-60763847D01*
X83789870Y-60770129D01*
X83789870Y-60770131D01*
X83743263Y-60913576D01*
X83736536Y-60934279D01*
X83717804Y-61112500D01*
X77496147Y-61112500D01*
X77505133Y-61050000D01*
X77486697Y-60921774D01*
X77432882Y-60803937D01*
X77426981Y-60797127D01*
X77424405Y-60793118D01*
X77406681Y-60748843D01*
X77406681Y-60701151D01*
X77424407Y-60656876D01*
X77426974Y-60652880D01*
X77432882Y-60646063D01*
X77486697Y-60528226D01*
X77505133Y-60400000D01*
X77486697Y-60271774D01*
X77438886Y-60167085D01*
X77427500Y-60114743D01*
X77427500Y-59708556D01*
X77437091Y-59660338D01*
X77464405Y-59619460D01*
X77919462Y-59164404D01*
X77960339Y-59137091D01*
X78008557Y-59127500D01*
X102747782Y-59127500D01*
X102773639Y-59130182D01*
X102784184Y-59132393D01*
X102815673Y-59128467D01*
X102820891Y-59128143D01*
X102820874Y-59127931D01*
X102826072Y-59127500D01*
X102831281Y-59127500D01*
X102851896Y-59124059D01*
X102856986Y-59123318D01*
X102909203Y-59116810D01*
X102916385Y-59113298D01*
X102924269Y-59111983D01*
X102970515Y-59086954D01*
X102975147Y-59084571D01*
X102995218Y-59074758D01*
X103022389Y-59061476D01*
X103028040Y-59055824D01*
X103035071Y-59052020D01*
X103070707Y-59013307D01*
X103074266Y-59009597D01*
X103918356Y-58165508D01*
X103971948Y-58133711D01*
X104039069Y-58114004D01*
X104148049Y-58043967D01*
X104232882Y-57946063D01*
X104286697Y-57828226D01*
X104287979Y-57819303D01*
X104288655Y-57817004D01*
X104320454Y-57763410D01*
X104418355Y-57665509D01*
X104471946Y-57633712D01*
X104539069Y-57614004D01*
X104648049Y-57543967D01*
X104732882Y-57446063D01*
X104786697Y-57328226D01*
X104802595Y-57217653D01*
X104803851Y-57208917D01*
X104805133Y-57200000D01*
X104799586Y-57161423D01*
X104787979Y-57080691D01*
X104786697Y-57071774D01*
X104732882Y-56953937D01*
X104648049Y-56856033D01*
X104539069Y-56785996D01*
X104530425Y-56783458D01*
X104530423Y-56783457D01*
X104423416Y-56752038D01*
X104423415Y-56752037D01*
X104414772Y-56749500D01*
X104285228Y-56749500D01*
X104276585Y-56752037D01*
X104276583Y-56752038D01*
X104169576Y-56783457D01*
X104169571Y-56783458D01*
X104160931Y-56785996D01*
X104153352Y-56790866D01*
X104153351Y-56790867D01*
X104059531Y-56851161D01*
X104059528Y-56851163D01*
X104051951Y-56856033D01*
X104046050Y-56862842D01*
X104046050Y-56862843D01*
X104006594Y-56908379D01*
X103967118Y-56953937D01*
X103963374Y-56962134D01*
X103963372Y-56962138D01*
X103917047Y-57063575D01*
X103913303Y-57071774D01*
X103912021Y-57080691D01*
X103911344Y-57082996D01*
X103879544Y-57136588D01*
X103781646Y-57234486D01*
X103728051Y-57266287D01*
X103669576Y-57283457D01*
X103669572Y-57283458D01*
X103660931Y-57285996D01*
X103653352Y-57290866D01*
X103653349Y-57290868D01*
X103559531Y-57351161D01*
X103559528Y-57351163D01*
X103551951Y-57356033D01*
X103546050Y-57362842D01*
X103546050Y-57362843D01*
X103473941Y-57446063D01*
X103467118Y-57453937D01*
X103463374Y-57462134D01*
X103463372Y-57462138D01*
X103417046Y-57563576D01*
X103417044Y-57563581D01*
X103413303Y-57571774D01*
X103412020Y-57580691D01*
X103411344Y-57582996D01*
X103379545Y-57636588D01*
X102680536Y-58335597D01*
X102639662Y-58362909D01*
X102591444Y-58372500D01*
X77852218Y-58372500D01*
X77826361Y-58369818D01*
X77826034Y-58369749D01*
X77826031Y-58369748D01*
X77815816Y-58367607D01*
X77805458Y-58368898D01*
X77805455Y-58368898D01*
X77784329Y-58371532D01*
X77779105Y-58371856D01*
X77779123Y-58372070D01*
X77773930Y-58372500D01*
X77768719Y-58372500D01*
X77763585Y-58373356D01*
X77763580Y-58373357D01*
X77748119Y-58375937D01*
X77742974Y-58376686D01*
X77701149Y-58381900D01*
X77701146Y-58381900D01*
X77690796Y-58383191D01*
X77683615Y-58386701D01*
X77675731Y-58388017D01*
X77629459Y-58413057D01*
X77624864Y-58415422D01*
X77586988Y-58433938D01*
X77586980Y-58433943D01*
X77577611Y-58438524D01*
X77571959Y-58444175D01*
X77564929Y-58447980D01*
X77557865Y-58455652D01*
X77557861Y-58455656D01*
X77529293Y-58486688D01*
X77525690Y-58490442D01*
X76819990Y-59196142D01*
X76799821Y-59212523D01*
X76799529Y-59212713D01*
X76799522Y-59212718D01*
X76790791Y-59218424D01*
X76784383Y-59226655D01*
X76784378Y-59226661D01*
X76771290Y-59243476D01*
X76767886Y-59247443D01*
X76767993Y-59247534D01*
X76764634Y-59251498D01*
X76760948Y-59255186D01*
X76757924Y-59259420D01*
X76757918Y-59259428D01*
X76748810Y-59272184D01*
X76745704Y-59276349D01*
X76719819Y-59309607D01*
X76719817Y-59309609D01*
X76713408Y-59317845D01*
X76710812Y-59325406D01*
X76706168Y-59331911D01*
X76703190Y-59341911D01*
X76703189Y-59341915D01*
X76691159Y-59382320D01*
X76689572Y-59387273D01*
X76675889Y-59427131D01*
X76675888Y-59427136D01*
X76672500Y-59437006D01*
X76672500Y-59444998D01*
X76670219Y-59452660D01*
X76670650Y-59463091D01*
X76670650Y-59463095D01*
X76672392Y-59505193D01*
X76672500Y-59510400D01*
X76672500Y-60114743D01*
X76661113Y-60167086D01*
X76617046Y-60263576D01*
X76617044Y-60263581D01*
X76613303Y-60271774D01*
X76612021Y-60280684D01*
X76612020Y-60280691D01*
X76607461Y-60312404D01*
X76594867Y-60400000D01*
X76596149Y-60408917D01*
X76612020Y-60519308D01*
X76612021Y-60519313D01*
X76613303Y-60528226D01*
X76617045Y-60536419D01*
X76617046Y-60536423D01*
X76653364Y-60615947D01*
X76667118Y-60646063D01*
X76673017Y-60652871D01*
X76675593Y-60656879D01*
X76695595Y-60724997D01*
X76675596Y-60793115D01*
X76673014Y-60797131D01*
X76667118Y-60803937D01*
X76663377Y-60812127D01*
X76663374Y-60812133D01*
X76617046Y-60913576D01*
X76617044Y-60913581D01*
X76613303Y-60921774D01*
X76612021Y-60930684D01*
X76612020Y-60930691D01*
X76610561Y-60940842D01*
X76594867Y-61050000D01*
X42513153Y-61050000D01*
X43250752Y-60312402D01*
X43291627Y-60285091D01*
X43339845Y-60275500D01*
X43355763Y-60275500D01*
X43364772Y-60275500D01*
X43489069Y-60239004D01*
X43598049Y-60168967D01*
X43682882Y-60071063D01*
X43736697Y-59953226D01*
X43755133Y-59825000D01*
X43736697Y-59696774D01*
X43682882Y-59578937D01*
X43598049Y-59481033D01*
X43489069Y-59410996D01*
X43480425Y-59408458D01*
X43480423Y-59408457D01*
X43373416Y-59377038D01*
X43373415Y-59377037D01*
X43364772Y-59374500D01*
X43235228Y-59374500D01*
X43226585Y-59377037D01*
X43226583Y-59377038D01*
X43119576Y-59408457D01*
X43119571Y-59408458D01*
X43110931Y-59410996D01*
X43103352Y-59415866D01*
X43103351Y-59415867D01*
X43009531Y-59476161D01*
X43009528Y-59476163D01*
X43001951Y-59481033D01*
X42996050Y-59487842D01*
X42996050Y-59487843D01*
X42976505Y-59510400D01*
X42917118Y-59578937D01*
X42913374Y-59587134D01*
X42913372Y-59587138D01*
X42867046Y-59688576D01*
X42867044Y-59688581D01*
X42863303Y-59696774D01*
X42862021Y-59705689D01*
X42862019Y-59705697D01*
X42856378Y-59744927D01*
X42844333Y-59783394D01*
X42820756Y-59816088D01*
X40491251Y-62145595D01*
X40450374Y-62172909D01*
X40402156Y-62182500D01*
X39956914Y-62182500D01*
X39893914Y-62165619D01*
X39847795Y-62119500D01*
X39777124Y-61997095D01*
X39773823Y-61991377D01*
X39650397Y-61854298D01*
X39501167Y-61745876D01*
X39470614Y-61732273D01*
X39338682Y-61673532D01*
X39338674Y-61673529D01*
X39332656Y-61670850D01*
X39326206Y-61669479D01*
X39326203Y-61669478D01*
X39158686Y-61633872D01*
X39158681Y-61633871D01*
X39152229Y-61632500D01*
X38967771Y-61632500D01*
X38961319Y-61633871D01*
X38961313Y-61633872D01*
X38793796Y-61669478D01*
X38793790Y-61669479D01*
X38787344Y-61670850D01*
X38781328Y-61673528D01*
X38781317Y-61673532D01*
X38624863Y-61743191D01*
X38624860Y-61743192D01*
X38618833Y-61745876D01*
X38613492Y-61749756D01*
X38613491Y-61749757D01*
X38608472Y-61753404D01*
X38469603Y-61854298D01*
X38465186Y-61859203D01*
X38465181Y-61859208D01*
X38350596Y-61986468D01*
X38350591Y-61986474D01*
X38346177Y-61991377D01*
X38342878Y-61997090D01*
X38342875Y-61997095D01*
X38272205Y-62119500D01*
X38253948Y-62151122D01*
X38251909Y-62157396D01*
X38251905Y-62157406D01*
X38198986Y-62320274D01*
X38198984Y-62320281D01*
X38196947Y-62326552D01*
X38177666Y-62510000D01*
X33403865Y-62510000D01*
X35342995Y-60570870D01*
X38331762Y-60570870D01*
X38339314Y-60579112D01*
X38384085Y-60610461D01*
X38393586Y-60615947D01*
X38583112Y-60704325D01*
X38593404Y-60708071D01*
X38795401Y-60762195D01*
X38806196Y-60764099D01*
X39014525Y-60782326D01*
X39025475Y-60782326D01*
X39233803Y-60764099D01*
X39244598Y-60762195D01*
X39446595Y-60708071D01*
X39456887Y-60704325D01*
X39646413Y-60615947D01*
X39655914Y-60610461D01*
X39700683Y-60579112D01*
X39708236Y-60570870D01*
X39702229Y-60561440D01*
X39031730Y-59890940D01*
X39019999Y-59884167D01*
X39008270Y-59890939D01*
X38337772Y-60561437D01*
X38331762Y-60570870D01*
X35342995Y-60570870D01*
X35679733Y-60234132D01*
X36388390Y-59525475D01*
X37757674Y-59525475D01*
X37775900Y-59733803D01*
X37777804Y-59744598D01*
X37831928Y-59946595D01*
X37835674Y-59956887D01*
X37924053Y-60146415D01*
X37929535Y-60155911D01*
X37960886Y-60200684D01*
X37969128Y-60208236D01*
X37978558Y-60202229D01*
X38649058Y-59531730D01*
X38655831Y-59519999D01*
X39384167Y-59519999D01*
X39390940Y-59531730D01*
X40061440Y-60202229D01*
X40070870Y-60208236D01*
X40079112Y-60200683D01*
X40110461Y-60155914D01*
X40115947Y-60146413D01*
X40204325Y-59956887D01*
X40208071Y-59946595D01*
X40262195Y-59744598D01*
X40264099Y-59733803D01*
X40282326Y-59525475D01*
X40282326Y-59514525D01*
X40264099Y-59306196D01*
X40262195Y-59295401D01*
X40208071Y-59093404D01*
X40204325Y-59083112D01*
X40115946Y-58893585D01*
X40110464Y-58884089D01*
X40079112Y-58839314D01*
X40070870Y-58831762D01*
X40061437Y-58837772D01*
X39390939Y-59508270D01*
X39384167Y-59519999D01*
X38655831Y-59519999D01*
X38649059Y-59508270D01*
X37978560Y-58837771D01*
X37969128Y-58831762D01*
X37960887Y-58839313D01*
X37929533Y-58884092D01*
X37924054Y-58893583D01*
X37835674Y-59083112D01*
X37831928Y-59093404D01*
X37777804Y-59295401D01*
X37775900Y-59306196D01*
X37757674Y-59514525D01*
X37757674Y-59525475D01*
X36388390Y-59525475D01*
X37444737Y-58469128D01*
X38331761Y-58469128D01*
X38337768Y-58478557D01*
X39008268Y-59149058D01*
X39019999Y-59155831D01*
X39031728Y-59149059D01*
X39702226Y-58478561D01*
X39708236Y-58469128D01*
X39700684Y-58460886D01*
X39655911Y-58429535D01*
X39646415Y-58424053D01*
X39456887Y-58335674D01*
X39446595Y-58331928D01*
X39244598Y-58277804D01*
X39233803Y-58275900D01*
X39025475Y-58257674D01*
X39014525Y-58257674D01*
X38806196Y-58275900D01*
X38795401Y-58277804D01*
X38593404Y-58331928D01*
X38583112Y-58335674D01*
X38393583Y-58424054D01*
X38384092Y-58429533D01*
X38339313Y-58460887D01*
X38331761Y-58469128D01*
X37444737Y-58469128D01*
X38662061Y-57251803D01*
X38715368Y-57220089D01*
X38777348Y-57217653D01*
X38917771Y-57247500D01*
X39095626Y-57247500D01*
X39102229Y-57247500D01*
X39282656Y-57209150D01*
X39451167Y-57134124D01*
X39600397Y-57025702D01*
X39723823Y-56888623D01*
X39768928Y-56810498D01*
X39815047Y-56764381D01*
X39878047Y-56747500D01*
X43552782Y-56747500D01*
X43578639Y-56750182D01*
X43589184Y-56752393D01*
X43620673Y-56748467D01*
X43636258Y-56747500D01*
X43636281Y-56747500D01*
X52295452Y-56747500D01*
X52363572Y-56767502D01*
X52428346Y-56809130D01*
X52428348Y-56809131D01*
X52435931Y-56814004D01*
X52560228Y-56850500D01*
X52569237Y-56850500D01*
X52639363Y-56850500D01*
X52699748Y-56865912D01*
X52745361Y-56908379D01*
X52765042Y-56967511D01*
X52753977Y-57028842D01*
X52714873Y-57077368D01*
X52661440Y-57099500D01*
X52660228Y-57099500D01*
X52651585Y-57102037D01*
X52651583Y-57102038D01*
X52544576Y-57133457D01*
X52544571Y-57133458D01*
X52535931Y-57135996D01*
X52528352Y-57140866D01*
X52528351Y-57140867D01*
X52434531Y-57201161D01*
X52434528Y-57201163D01*
X52426951Y-57206033D01*
X52421050Y-57212842D01*
X52421050Y-57212843D01*
X52357664Y-57285996D01*
X52342118Y-57303937D01*
X52338374Y-57312134D01*
X52338372Y-57312138D01*
X52292046Y-57413576D01*
X52292044Y-57413581D01*
X52288303Y-57421774D01*
X52287021Y-57430684D01*
X52287020Y-57430691D01*
X52272971Y-57528413D01*
X52269867Y-57550000D01*
X52271149Y-57558917D01*
X52287020Y-57669308D01*
X52287021Y-57669313D01*
X52288303Y-57678226D01*
X52292045Y-57686419D01*
X52292046Y-57686423D01*
X52338372Y-57787861D01*
X52342118Y-57796063D01*
X52426951Y-57893967D01*
X52535931Y-57964004D01*
X52660228Y-58000500D01*
X52780763Y-58000500D01*
X52789772Y-58000500D01*
X52914069Y-57964004D01*
X53023049Y-57893967D01*
X53107882Y-57796063D01*
X53161697Y-57678226D01*
X53162979Y-57669306D01*
X53162981Y-57669301D01*
X53175308Y-57583568D01*
X53197389Y-57528413D01*
X53242289Y-57489507D01*
X53300025Y-57475500D01*
X53305763Y-57475500D01*
X53314772Y-57475500D01*
X53439069Y-57439004D01*
X53548049Y-57368967D01*
X53632882Y-57271063D01*
X53686697Y-57153226D01*
X53705133Y-57025000D01*
X53703851Y-57016083D01*
X53703851Y-57007068D01*
X53705218Y-57007068D01*
X53708152Y-56966009D01*
X53733822Y-56918991D01*
X53776705Y-56886887D01*
X53829050Y-56875500D01*
X53930763Y-56875500D01*
X53939772Y-56875500D01*
X54064069Y-56839004D01*
X54173049Y-56768967D01*
X54257882Y-56671063D01*
X54311697Y-56553226D01*
X54330133Y-56425000D01*
X54311697Y-56296774D01*
X54257882Y-56178937D01*
X54173049Y-56081033D01*
X54064069Y-56010996D01*
X54055425Y-56008458D01*
X54055423Y-56008457D01*
X53948416Y-55977038D01*
X53948415Y-55977037D01*
X53939772Y-55974500D01*
X53913554Y-55974500D01*
X53856351Y-55960767D01*
X53811618Y-55922561D01*
X53789105Y-55868211D01*
X53793721Y-55809564D01*
X53824459Y-55759405D01*
X55659364Y-53924500D01*
X58183089Y-51400775D01*
X58236684Y-51368976D01*
X58298965Y-51366751D01*
X58350890Y-51392743D01*
X58351951Y-51393967D01*
X58460931Y-51464004D01*
X58585228Y-51500500D01*
X58705763Y-51500500D01*
X58714772Y-51500500D01*
X58839069Y-51464004D01*
X58948049Y-51393967D01*
X59032882Y-51296063D01*
X59086697Y-51178226D01*
X59105133Y-51050000D01*
X59102754Y-51033457D01*
X59087979Y-50930691D01*
X59086697Y-50921774D01*
X59032882Y-50803937D01*
X59026981Y-50797127D01*
X59024405Y-50793118D01*
X59006681Y-50748843D01*
X59006681Y-50701151D01*
X59024407Y-50656876D01*
X59026974Y-50652880D01*
X59032882Y-50646063D01*
X59086697Y-50528226D01*
X59105133Y-50400000D01*
X59086697Y-50271774D01*
X59032882Y-50153937D01*
X58948049Y-50056033D01*
X58839069Y-49985996D01*
X58830425Y-49983458D01*
X58830423Y-49983457D01*
X58723416Y-49952038D01*
X58723415Y-49952037D01*
X58714772Y-49949500D01*
X58585228Y-49949500D01*
X58576585Y-49952037D01*
X58576583Y-49952038D01*
X58469576Y-49983457D01*
X58469571Y-49983458D01*
X58460931Y-49985996D01*
X58453355Y-49990864D01*
X58453350Y-49990867D01*
X58435255Y-50002497D01*
X58402632Y-50017396D01*
X58367133Y-50022500D01*
X49627218Y-50022500D01*
X49601361Y-50019818D01*
X49601034Y-50019749D01*
X49601031Y-50019748D01*
X49590816Y-50017607D01*
X49580457Y-50018898D01*
X49580455Y-50018898D01*
X49559327Y-50021532D01*
X49554105Y-50021856D01*
X49554123Y-50022070D01*
X49548930Y-50022500D01*
X49543719Y-50022500D01*
X49538583Y-50023356D01*
X49538581Y-50023357D01*
X49531706Y-50024504D01*
X49523119Y-50025936D01*
X49517986Y-50026684D01*
X49476152Y-50031899D01*
X49476151Y-50031899D01*
X49465797Y-50033190D01*
X49458614Y-50036701D01*
X49450731Y-50038017D01*
X49441552Y-50042984D01*
X49441550Y-50042985D01*
X49404493Y-50063039D01*
X49399868Y-50065420D01*
X49361986Y-50083940D01*
X49361982Y-50083942D01*
X49352611Y-50088524D01*
X49346959Y-50094175D01*
X49339929Y-50097980D01*
X49332863Y-50105654D01*
X49332857Y-50105660D01*
X49304292Y-50136690D01*
X49300688Y-50140445D01*
X43485539Y-55955595D01*
X43444662Y-55982909D01*
X43396444Y-55992500D01*
X39878047Y-55992500D01*
X39815047Y-55975619D01*
X39768928Y-55929501D01*
X39723823Y-55851377D01*
X39600397Y-55714298D01*
X39451167Y-55605876D01*
X39420614Y-55592273D01*
X39288682Y-55533532D01*
X39288674Y-55533529D01*
X39282656Y-55530850D01*
X39276206Y-55529479D01*
X39276203Y-55529478D01*
X39108686Y-55493872D01*
X39108681Y-55493871D01*
X39102229Y-55492500D01*
X38917771Y-55492500D01*
X38911319Y-55493871D01*
X38911313Y-55493872D01*
X38743796Y-55529478D01*
X38743790Y-55529479D01*
X38737344Y-55530850D01*
X38731328Y-55533528D01*
X38731317Y-55533532D01*
X38574863Y-55603191D01*
X38574860Y-55603192D01*
X38568833Y-55605876D01*
X38419603Y-55714298D01*
X38415186Y-55719203D01*
X38415181Y-55719208D01*
X38300596Y-55846468D01*
X38300591Y-55846474D01*
X38296177Y-55851377D01*
X38254193Y-55924096D01*
X38251072Y-55929501D01*
X38204953Y-55975619D01*
X38141953Y-55992500D01*
X31603556Y-55992500D01*
X31555338Y-55982909D01*
X31514461Y-55955595D01*
X29238866Y-53680000D01*
X38257666Y-53680000D01*
X38276947Y-53863448D01*
X38278984Y-53869720D01*
X38278986Y-53869725D01*
X38331905Y-54032593D01*
X38331908Y-54032600D01*
X38333948Y-54038878D01*
X38426177Y-54198623D01*
X38430595Y-54203530D01*
X38430596Y-54203531D01*
X38503169Y-54284132D01*
X38549603Y-54335702D01*
X38698833Y-54444124D01*
X38805349Y-54491548D01*
X38861317Y-54516467D01*
X38861320Y-54516468D01*
X38867344Y-54519150D01*
X39047771Y-54557500D01*
X39225626Y-54557500D01*
X39232229Y-54557500D01*
X39412656Y-54519150D01*
X39581167Y-54444124D01*
X39730397Y-54335702D01*
X39853823Y-54198623D01*
X39927794Y-54070500D01*
X39973914Y-54024381D01*
X40036914Y-54007500D01*
X41750206Y-54007500D01*
X41761188Y-54007979D01*
X41798984Y-54011287D01*
X41835646Y-54001462D01*
X41846373Y-53999085D01*
X41883739Y-53992497D01*
X41893289Y-53986982D01*
X41896637Y-53985764D01*
X41899886Y-53984249D01*
X41910543Y-53981394D01*
X41941627Y-53959627D01*
X41950887Y-53953727D01*
X41983760Y-53934750D01*
X42008162Y-53905667D01*
X42015565Y-53897587D01*
X42750766Y-53162388D01*
X42783459Y-53138814D01*
X42821928Y-53126769D01*
X42830755Y-53125500D01*
X42839772Y-53125500D01*
X42964069Y-53089004D01*
X43073049Y-53018967D01*
X43157882Y-52921063D01*
X43211697Y-52803226D01*
X43230133Y-52675000D01*
X43211697Y-52546774D01*
X43157882Y-52428937D01*
X43073049Y-52331033D01*
X42964069Y-52260996D01*
X42955425Y-52258458D01*
X42955423Y-52258457D01*
X42848416Y-52227038D01*
X42848415Y-52227037D01*
X42839772Y-52224500D01*
X42710228Y-52224500D01*
X42701585Y-52227037D01*
X42701583Y-52227038D01*
X42594576Y-52258457D01*
X42594571Y-52258458D01*
X42585931Y-52260996D01*
X42578352Y-52265866D01*
X42578351Y-52265867D01*
X42484531Y-52326161D01*
X42484528Y-52326163D01*
X42476951Y-52331033D01*
X42392118Y-52428937D01*
X42388374Y-52437134D01*
X42388372Y-52437138D01*
X42342046Y-52538576D01*
X42342044Y-52538581D01*
X42338303Y-52546774D01*
X42337021Y-52555685D01*
X42337018Y-52555698D01*
X42327181Y-52624121D01*
X42315136Y-52662589D01*
X42291560Y-52695284D01*
X41671251Y-53315595D01*
X41630373Y-53342909D01*
X41582155Y-53352500D01*
X40036914Y-53352500D01*
X39973914Y-53335619D01*
X39927795Y-53289500D01*
X39926366Y-53287026D01*
X39853823Y-53161377D01*
X39730397Y-53024298D01*
X39581167Y-52915876D01*
X39550614Y-52902273D01*
X39418682Y-52843532D01*
X39418674Y-52843529D01*
X39412656Y-52840850D01*
X39406206Y-52839479D01*
X39406203Y-52839478D01*
X39238686Y-52803872D01*
X39238681Y-52803871D01*
X39232229Y-52802500D01*
X39047771Y-52802500D01*
X39041319Y-52803871D01*
X39041313Y-52803872D01*
X38873796Y-52839478D01*
X38873790Y-52839479D01*
X38867344Y-52840850D01*
X38861328Y-52843528D01*
X38861317Y-52843532D01*
X38704863Y-52913191D01*
X38704860Y-52913192D01*
X38698833Y-52915876D01*
X38693492Y-52919756D01*
X38693491Y-52919757D01*
X38691694Y-52921063D01*
X38549603Y-53024298D01*
X38545186Y-53029203D01*
X38545181Y-53029208D01*
X38430596Y-53156468D01*
X38430591Y-53156474D01*
X38426177Y-53161377D01*
X38422878Y-53167090D01*
X38422875Y-53167095D01*
X38386158Y-53230691D01*
X38333948Y-53321122D01*
X38331909Y-53327396D01*
X38331905Y-53327406D01*
X38278986Y-53490274D01*
X38278984Y-53490281D01*
X38276947Y-53496552D01*
X38257666Y-53680000D01*
X29238866Y-53680000D01*
X27045455Y-51486589D01*
X27013654Y-51432992D01*
X27012979Y-51430696D01*
X27011697Y-51421774D01*
X26957882Y-51303937D01*
X26873049Y-51206033D01*
X26764069Y-51135996D01*
X26755427Y-51133458D01*
X26755424Y-51133457D01*
X26738642Y-51128530D01*
X26687190Y-51098823D01*
X26655070Y-51048843D01*
X26649424Y-50989703D01*
X26655133Y-50950000D01*
X26636697Y-50821774D01*
X26631320Y-50810000D01*
X38277666Y-50810000D01*
X38296947Y-50993448D01*
X38298984Y-50999720D01*
X38298986Y-50999725D01*
X38351905Y-51162593D01*
X38351908Y-51162600D01*
X38353948Y-51168878D01*
X38386487Y-51225237D01*
X38437489Y-51313576D01*
X38446177Y-51328623D01*
X38450595Y-51333530D01*
X38450596Y-51333531D01*
X38563494Y-51458917D01*
X38569603Y-51465702D01*
X38718833Y-51574124D01*
X38807073Y-51613411D01*
X38881317Y-51646467D01*
X38881320Y-51646468D01*
X38887344Y-51649150D01*
X39067771Y-51687500D01*
X39245626Y-51687500D01*
X39252229Y-51687500D01*
X39432656Y-51649150D01*
X39601167Y-51574124D01*
X39750397Y-51465702D01*
X39873823Y-51328623D01*
X39947794Y-51200500D01*
X39993914Y-51154381D01*
X40056914Y-51137500D01*
X42470206Y-51137500D01*
X42481188Y-51137979D01*
X42518984Y-51141287D01*
X42555646Y-51131462D01*
X42566373Y-51129085D01*
X42569521Y-51128530D01*
X42603739Y-51122497D01*
X42613289Y-51116982D01*
X42616637Y-51115764D01*
X42619886Y-51114249D01*
X42630543Y-51111394D01*
X42661627Y-51089627D01*
X42670887Y-51083727D01*
X42703760Y-51064750D01*
X42728162Y-51035667D01*
X42735565Y-51027587D01*
X43025750Y-50737404D01*
X43066628Y-50710091D01*
X43114846Y-50700500D01*
X43155763Y-50700500D01*
X43164772Y-50700500D01*
X43289069Y-50664004D01*
X43398049Y-50593967D01*
X43482882Y-50496063D01*
X43536697Y-50378226D01*
X43555133Y-50250000D01*
X43536697Y-50121774D01*
X43482882Y-50003937D01*
X43398049Y-49906033D01*
X43289069Y-49835996D01*
X43280425Y-49833458D01*
X43280423Y-49833457D01*
X43173416Y-49802038D01*
X43173415Y-49802037D01*
X43164772Y-49799500D01*
X43035228Y-49799500D01*
X43026585Y-49802037D01*
X43026583Y-49802038D01*
X42919576Y-49833457D01*
X42919571Y-49833458D01*
X42910931Y-49835996D01*
X42903352Y-49840866D01*
X42903351Y-49840867D01*
X42809531Y-49901161D01*
X42809528Y-49901163D01*
X42801951Y-49906033D01*
X42796050Y-49912842D01*
X42796050Y-49912843D01*
X42732664Y-49985996D01*
X42717118Y-50003937D01*
X42713374Y-50012134D01*
X42713372Y-50012138D01*
X42674169Y-50097980D01*
X42663303Y-50121774D01*
X42662020Y-50130690D01*
X42662020Y-50130694D01*
X42660578Y-50140726D01*
X42648533Y-50179193D01*
X42624957Y-50211887D01*
X42391251Y-50445595D01*
X42350373Y-50472909D01*
X42302155Y-50482500D01*
X40056914Y-50482500D01*
X39993914Y-50465619D01*
X39947795Y-50419500D01*
X39923965Y-50378226D01*
X39873823Y-50291377D01*
X39856172Y-50271774D01*
X39754818Y-50159208D01*
X39754817Y-50159207D01*
X39750397Y-50154298D01*
X39601167Y-50045876D01*
X39547698Y-50022070D01*
X39438682Y-49973532D01*
X39438674Y-49973529D01*
X39432656Y-49970850D01*
X39426206Y-49969479D01*
X39426203Y-49969478D01*
X39258686Y-49933872D01*
X39258681Y-49933871D01*
X39252229Y-49932500D01*
X39067771Y-49932500D01*
X39061319Y-49933871D01*
X39061313Y-49933872D01*
X38893796Y-49969478D01*
X38893790Y-49969479D01*
X38887344Y-49970850D01*
X38881328Y-49973528D01*
X38881317Y-49973532D01*
X38724863Y-50043191D01*
X38724860Y-50043192D01*
X38718833Y-50045876D01*
X38713492Y-50049756D01*
X38713491Y-50049757D01*
X38591222Y-50138591D01*
X38569603Y-50154298D01*
X38565186Y-50159203D01*
X38565181Y-50159208D01*
X38450596Y-50286468D01*
X38450591Y-50286474D01*
X38446177Y-50291377D01*
X38442878Y-50297090D01*
X38442875Y-50297095D01*
X38383463Y-50400000D01*
X38353948Y-50451122D01*
X38351909Y-50457396D01*
X38351905Y-50457406D01*
X38298986Y-50620274D01*
X38298984Y-50620281D01*
X38296947Y-50626552D01*
X38296257Y-50633113D01*
X38296257Y-50633115D01*
X38288167Y-50710091D01*
X38277666Y-50810000D01*
X26631320Y-50810000D01*
X26582882Y-50703937D01*
X26498049Y-50606033D01*
X26389069Y-50535996D01*
X26380425Y-50533458D01*
X26380423Y-50533457D01*
X26273416Y-50502038D01*
X26273415Y-50502037D01*
X26264772Y-50499500D01*
X26135228Y-50499500D01*
X26126585Y-50502037D01*
X26126583Y-50502038D01*
X26019576Y-50533457D01*
X26019571Y-50533458D01*
X26010931Y-50535996D01*
X26003352Y-50540866D01*
X26003351Y-50540867D01*
X25909531Y-50601161D01*
X25909528Y-50601163D01*
X25901951Y-50606033D01*
X25896050Y-50612842D01*
X25896050Y-50612843D01*
X25851720Y-50664004D01*
X25817118Y-50703937D01*
X25813374Y-50712134D01*
X25813372Y-50712138D01*
X25767046Y-50813576D01*
X25767044Y-50813581D01*
X25763303Y-50821774D01*
X25762021Y-50830684D01*
X25762020Y-50830691D01*
X25750104Y-50913576D01*
X25744867Y-50950000D01*
X17970500Y-50950000D01*
X17970500Y-48820215D01*
X29486703Y-48820215D01*
X50726703Y-48880215D01*
X50626703Y-39750215D01*
X50610188Y-39750285D01*
X29523219Y-39840144D01*
X29523216Y-39840144D01*
X29506703Y-39840215D01*
X29506666Y-39856732D01*
X29506666Y-39856733D01*
X29486739Y-48803634D01*
X29486739Y-48803637D01*
X29486703Y-48820215D01*
X17970500Y-48820215D01*
X17970500Y-42800000D01*
X24294867Y-42800000D01*
X24296149Y-42808917D01*
X24312020Y-42919308D01*
X24312021Y-42919313D01*
X24313303Y-42928226D01*
X24317045Y-42936419D01*
X24317046Y-42936423D01*
X24363042Y-43037138D01*
X24367118Y-43046063D01*
X24451951Y-43143967D01*
X24560931Y-43214004D01*
X24685228Y-43250500D01*
X24694237Y-43250500D01*
X24707164Y-43250500D01*
X24764900Y-43264507D01*
X24809800Y-43303413D01*
X24831881Y-43358568D01*
X24837018Y-43394301D01*
X24837021Y-43394312D01*
X24838303Y-43403226D01*
X24842045Y-43411419D01*
X24842046Y-43411423D01*
X24888372Y-43512861D01*
X24892118Y-43521063D01*
X24976951Y-43618967D01*
X25085931Y-43689004D01*
X25210228Y-43725500D01*
X25330763Y-43725500D01*
X25339772Y-43725500D01*
X25464069Y-43689004D01*
X25573049Y-43618967D01*
X25657882Y-43521063D01*
X25711697Y-43403226D01*
X25730133Y-43275000D01*
X25711697Y-43146774D01*
X25657882Y-43028937D01*
X25573049Y-42931033D01*
X25464069Y-42860996D01*
X25455425Y-42858458D01*
X25455423Y-42858457D01*
X25348416Y-42827038D01*
X25348415Y-42827037D01*
X25339772Y-42824500D01*
X25317836Y-42824500D01*
X25260100Y-42810493D01*
X25215200Y-42771587D01*
X25193119Y-42716432D01*
X25187981Y-42680698D01*
X25187979Y-42680691D01*
X25186697Y-42671774D01*
X25138886Y-42567085D01*
X25127500Y-42514743D01*
X25127500Y-33408555D01*
X25137091Y-33360337D01*
X25164405Y-33319460D01*
X25587723Y-32896142D01*
X32099954Y-26383911D01*
X32132650Y-26360335D01*
X32164064Y-26350500D01*
X32164772Y-26350500D01*
X32289069Y-26314004D01*
X32314744Y-26297503D01*
X32347368Y-26282604D01*
X32382867Y-26277500D01*
X43741445Y-26277500D01*
X43789663Y-26287091D01*
X43830540Y-26314405D01*
X58163150Y-40647016D01*
X58188666Y-40683765D01*
X58217118Y-40746063D01*
X58301951Y-40843967D01*
X58383326Y-40896263D01*
X58404301Y-40913166D01*
X71596141Y-54105007D01*
X71612527Y-54125184D01*
X71612713Y-54125470D01*
X71612717Y-54125474D01*
X71618424Y-54134209D01*
X71643470Y-54153703D01*
X71647390Y-54157165D01*
X71647529Y-54157002D01*
X71651496Y-54160362D01*
X71655186Y-54164052D01*
X71659429Y-54167081D01*
X71659432Y-54167084D01*
X71672170Y-54176179D01*
X71676342Y-54179289D01*
X71717845Y-54211592D01*
X71725406Y-54214187D01*
X71731911Y-54218832D01*
X71782366Y-54233852D01*
X71787231Y-54235411D01*
X71837006Y-54252500D01*
X71844998Y-54252500D01*
X71852660Y-54254781D01*
X71905193Y-54252607D01*
X71910400Y-54252500D01*
X85192133Y-54252500D01*
X85227632Y-54257604D01*
X85260255Y-54272503D01*
X85285931Y-54289004D01*
X85410228Y-54325500D01*
X85530763Y-54325500D01*
X85539772Y-54325500D01*
X85664069Y-54289004D01*
X85689744Y-54272503D01*
X85722368Y-54257604D01*
X85757867Y-54252500D01*
X85917133Y-54252500D01*
X85952632Y-54257604D01*
X85985255Y-54272503D01*
X86010931Y-54289004D01*
X86135228Y-54325500D01*
X86255763Y-54325500D01*
X86264772Y-54325500D01*
X86389069Y-54289004D01*
X86498049Y-54218967D01*
X86582882Y-54121063D01*
X86636697Y-54003226D01*
X86655133Y-53875000D01*
X86636697Y-53746774D01*
X86582882Y-53628937D01*
X86498049Y-53531033D01*
X86389069Y-53460996D01*
X86380425Y-53458458D01*
X86380423Y-53458457D01*
X86273416Y-53427038D01*
X86273415Y-53427037D01*
X86264772Y-53424500D01*
X86135228Y-53424500D01*
X86126585Y-53427037D01*
X86126583Y-53427038D01*
X86019576Y-53458457D01*
X86019571Y-53458458D01*
X86010931Y-53460996D01*
X86003355Y-53465864D01*
X86003350Y-53465867D01*
X85985255Y-53477497D01*
X85952632Y-53492396D01*
X85917133Y-53497500D01*
X85757867Y-53497500D01*
X85722368Y-53492396D01*
X85689745Y-53477497D01*
X85671649Y-53465867D01*
X85671646Y-53465866D01*
X85664069Y-53460996D01*
X85655425Y-53458458D01*
X85655423Y-53458457D01*
X85548416Y-53427038D01*
X85548415Y-53427037D01*
X85539772Y-53424500D01*
X85410228Y-53424500D01*
X85401585Y-53427037D01*
X85401583Y-53427038D01*
X85294576Y-53458457D01*
X85294571Y-53458458D01*
X85285931Y-53460996D01*
X85278355Y-53465864D01*
X85278350Y-53465867D01*
X85260255Y-53477497D01*
X85227632Y-53492396D01*
X85192133Y-53497500D01*
X72108555Y-53497500D01*
X72060337Y-53487909D01*
X72019460Y-53460595D01*
X70008865Y-51450000D01*
X112794867Y-51450000D01*
X112796149Y-51458917D01*
X112812020Y-51569308D01*
X112812021Y-51569313D01*
X112813303Y-51578226D01*
X112817045Y-51586419D01*
X112817046Y-51586423D01*
X112863207Y-51687500D01*
X112867118Y-51696063D01*
X112951951Y-51793967D01*
X113060931Y-51864004D01*
X113185228Y-51900500D01*
X113305763Y-51900500D01*
X113314772Y-51900500D01*
X113439069Y-51864004D01*
X113506879Y-51820425D01*
X113551152Y-51802700D01*
X113598844Y-51802700D01*
X113643119Y-51820425D01*
X113703347Y-51859131D01*
X113703351Y-51859133D01*
X113710931Y-51864004D01*
X113835228Y-51900500D01*
X113955763Y-51900500D01*
X113964772Y-51900500D01*
X114089069Y-51864004D01*
X114114744Y-51847503D01*
X114147368Y-51832604D01*
X114182867Y-51827500D01*
X115341445Y-51827500D01*
X115389663Y-51837091D01*
X115430539Y-51864404D01*
X116779710Y-53213576D01*
X118042136Y-54476002D01*
X118067654Y-54512754D01*
X118095228Y-54573131D01*
X118117118Y-54621063D01*
X118201951Y-54718967D01*
X118262898Y-54758135D01*
X118267793Y-54761281D01*
X118308789Y-54804276D01*
X118325529Y-54861276D01*
X118317251Y-54904245D01*
X118319585Y-54904931D01*
X118317045Y-54913580D01*
X118313303Y-54921774D01*
X118312021Y-54930684D01*
X118312020Y-54930691D01*
X118296149Y-55041083D01*
X118294867Y-55050000D01*
X118296149Y-55058917D01*
X118312020Y-55169308D01*
X118312021Y-55169313D01*
X118313303Y-55178226D01*
X118367118Y-55296063D01*
X118451951Y-55393967D01*
X118560931Y-55464004D01*
X118685228Y-55500500D01*
X118805763Y-55500500D01*
X118814772Y-55500500D01*
X118939069Y-55464004D01*
X119048049Y-55393967D01*
X119132882Y-55296063D01*
X119186697Y-55178226D01*
X119205133Y-55050000D01*
X119186697Y-54921774D01*
X119138886Y-54817085D01*
X119127500Y-54764743D01*
X119127500Y-54677217D01*
X119130182Y-54651360D01*
X119130250Y-54651034D01*
X119130250Y-54651031D01*
X119132392Y-54640816D01*
X119128466Y-54609318D01*
X119128142Y-54604108D01*
X119127930Y-54604126D01*
X119127500Y-54598939D01*
X119127500Y-54593719D01*
X119124056Y-54573087D01*
X119123311Y-54567968D01*
X119122006Y-54557500D01*
X119116809Y-54515796D01*
X119113298Y-54508615D01*
X119111983Y-54500731D01*
X119086931Y-54454440D01*
X119084586Y-54449883D01*
X119061476Y-54402610D01*
X119055823Y-54396957D01*
X119052020Y-54389929D01*
X119013320Y-54354303D01*
X119009563Y-54350697D01*
X118970455Y-54311589D01*
X118938654Y-54257992D01*
X118937979Y-54255696D01*
X118936697Y-54246774D01*
X118882882Y-54128937D01*
X118798049Y-54031033D01*
X118689069Y-53960996D01*
X118673675Y-53956476D01*
X118586557Y-53930896D01*
X118532960Y-53899095D01*
X117983865Y-53350000D01*
X126794867Y-53350000D01*
X126796149Y-53358917D01*
X126812020Y-53469308D01*
X126812021Y-53469313D01*
X126813303Y-53478226D01*
X126817045Y-53486419D01*
X126817046Y-53486423D01*
X126835194Y-53526161D01*
X126867118Y-53596063D01*
X126951951Y-53693967D01*
X127060931Y-53764004D01*
X127185228Y-53800500D01*
X127305763Y-53800500D01*
X127314772Y-53800500D01*
X127439069Y-53764004D01*
X127548049Y-53693967D01*
X127632882Y-53596063D01*
X127686697Y-53478226D01*
X127705133Y-53350000D01*
X127701884Y-53327406D01*
X127687979Y-53230691D01*
X127686697Y-53221774D01*
X127638886Y-53117085D01*
X127627500Y-53064743D01*
X127627500Y-45708555D01*
X127637091Y-45660337D01*
X127664405Y-45619460D01*
X128087723Y-45196142D01*
X130418355Y-42865509D01*
X130471946Y-42833712D01*
X130539069Y-42814004D01*
X130648049Y-42743967D01*
X130732882Y-42646063D01*
X130786697Y-42528226D01*
X130805133Y-42400000D01*
X130786697Y-42271774D01*
X130732882Y-42153937D01*
X130648049Y-42056033D01*
X130539069Y-41985996D01*
X130530425Y-41983458D01*
X130530423Y-41983457D01*
X130423416Y-41952038D01*
X130423415Y-41952037D01*
X130414772Y-41949500D01*
X130285228Y-41949500D01*
X130276585Y-41952037D01*
X130276583Y-41952038D01*
X130169576Y-41983457D01*
X130169571Y-41983458D01*
X130160931Y-41985996D01*
X130153352Y-41990866D01*
X130153351Y-41990867D01*
X130059531Y-42051161D01*
X130059528Y-42051163D01*
X130051951Y-42056033D01*
X129967118Y-42153937D01*
X129963374Y-42162134D01*
X129963372Y-42162138D01*
X129917046Y-42263576D01*
X129917044Y-42263581D01*
X129913303Y-42271774D01*
X129912020Y-42280691D01*
X129911344Y-42282996D01*
X129879544Y-42336589D01*
X127019990Y-45196142D01*
X126999821Y-45212523D01*
X126999529Y-45212713D01*
X126999522Y-45212718D01*
X126990791Y-45218424D01*
X126984384Y-45226654D01*
X126984382Y-45226657D01*
X126971292Y-45243475D01*
X126967883Y-45247441D01*
X126967993Y-45247534D01*
X126964634Y-45251498D01*
X126960948Y-45255186D01*
X126957924Y-45259420D01*
X126957918Y-45259428D01*
X126948810Y-45272184D01*
X126945704Y-45276349D01*
X126919819Y-45309607D01*
X126919817Y-45309609D01*
X126913408Y-45317845D01*
X126910812Y-45325406D01*
X126906168Y-45331911D01*
X126903190Y-45341911D01*
X126903189Y-45341915D01*
X126891159Y-45382320D01*
X126889572Y-45387273D01*
X126875889Y-45427131D01*
X126875888Y-45427136D01*
X126872500Y-45437006D01*
X126872500Y-45444998D01*
X126870219Y-45452660D01*
X126870650Y-45463091D01*
X126870650Y-45463095D01*
X126872392Y-45505193D01*
X126872500Y-45510400D01*
X126872500Y-53064743D01*
X126861113Y-53117086D01*
X126817046Y-53213576D01*
X126817044Y-53213581D01*
X126813303Y-53221774D01*
X126812021Y-53230684D01*
X126812020Y-53230691D01*
X126796935Y-53335619D01*
X126794867Y-53350000D01*
X117983865Y-53350000D01*
X115853859Y-51219993D01*
X115837471Y-51199813D01*
X115837288Y-51199533D01*
X115837286Y-51199531D01*
X115831576Y-51190791D01*
X115823337Y-51184378D01*
X115823335Y-51184376D01*
X115806533Y-51171299D01*
X115802610Y-51167835D01*
X115802472Y-51167999D01*
X115798503Y-51164637D01*
X115794814Y-51160948D01*
X115777800Y-51148800D01*
X115773678Y-51145726D01*
X115732155Y-51113408D01*
X115724593Y-51110812D01*
X115718089Y-51106168D01*
X115708088Y-51103190D01*
X115708081Y-51103187D01*
X115667680Y-51091159D01*
X115662723Y-51089571D01*
X115622869Y-51075889D01*
X115622862Y-51075887D01*
X115612994Y-51072500D01*
X115605002Y-51072500D01*
X115597340Y-51070219D01*
X115586908Y-51070650D01*
X115586904Y-51070650D01*
X115544807Y-51072392D01*
X115539600Y-51072500D01*
X114182867Y-51072500D01*
X114147368Y-51067396D01*
X114114745Y-51052497D01*
X114096649Y-51040867D01*
X114096646Y-51040866D01*
X114089069Y-51035996D01*
X114080425Y-51033458D01*
X114080423Y-51033457D01*
X113973416Y-51002038D01*
X113973415Y-51002037D01*
X113964772Y-50999500D01*
X113835228Y-50999500D01*
X113826585Y-51002037D01*
X113826583Y-51002038D01*
X113719576Y-51033457D01*
X113719571Y-51033458D01*
X113710931Y-51035996D01*
X113703355Y-51040864D01*
X113703352Y-51040866D01*
X113643120Y-51079575D01*
X113575000Y-51099576D01*
X113506880Y-51079575D01*
X113446647Y-51040866D01*
X113446646Y-51040865D01*
X113439069Y-51035996D01*
X113430425Y-51033458D01*
X113430423Y-51033457D01*
X113323416Y-51002038D01*
X113323415Y-51002037D01*
X113314772Y-50999500D01*
X113185228Y-50999500D01*
X113176585Y-51002037D01*
X113176583Y-51002038D01*
X113069576Y-51033457D01*
X113069571Y-51033458D01*
X113060931Y-51035996D01*
X113053352Y-51040866D01*
X113053351Y-51040867D01*
X112959531Y-51101161D01*
X112959528Y-51101163D01*
X112951951Y-51106033D01*
X112946050Y-51112842D01*
X112946050Y-51112843D01*
X112873941Y-51196063D01*
X112867118Y-51203937D01*
X112863374Y-51212134D01*
X112863372Y-51212138D01*
X112817046Y-51313576D01*
X112817044Y-51313581D01*
X112813303Y-51321774D01*
X112812021Y-51330684D01*
X112812020Y-51330691D01*
X112801345Y-51404943D01*
X112794867Y-51450000D01*
X70008865Y-51450000D01*
X59084160Y-40525294D01*
X59060582Y-40492598D01*
X59048538Y-40454133D01*
X59036697Y-40371774D01*
X58982882Y-40253937D01*
X58898049Y-40156033D01*
X58789069Y-40085996D01*
X58780425Y-40083458D01*
X58780423Y-40083457D01*
X58673417Y-40052038D01*
X58673414Y-40052037D01*
X58664772Y-40049500D01*
X58664064Y-40049500D01*
X58632645Y-40039662D01*
X58599950Y-40016085D01*
X44253859Y-25669993D01*
X44237471Y-25649813D01*
X44237288Y-25649533D01*
X44237286Y-25649531D01*
X44231576Y-25640791D01*
X44223337Y-25634378D01*
X44223335Y-25634376D01*
X44206533Y-25621299D01*
X44202610Y-25617835D01*
X44202472Y-25617999D01*
X44198503Y-25614637D01*
X44194814Y-25610948D01*
X44177800Y-25598800D01*
X44173678Y-25595726D01*
X44132155Y-25563408D01*
X44124593Y-25560812D01*
X44118089Y-25556168D01*
X44108088Y-25553190D01*
X44108081Y-25553187D01*
X44067680Y-25541159D01*
X44062723Y-25539571D01*
X44022869Y-25525889D01*
X44022862Y-25525887D01*
X44012994Y-25522500D01*
X44005002Y-25522500D01*
X43997340Y-25520219D01*
X43986908Y-25520650D01*
X43986904Y-25520650D01*
X43944807Y-25522392D01*
X43939600Y-25522500D01*
X32382867Y-25522500D01*
X32347368Y-25517396D01*
X32314745Y-25502497D01*
X32296649Y-25490867D01*
X32296646Y-25490866D01*
X32289069Y-25485996D01*
X32280425Y-25483458D01*
X32280423Y-25483457D01*
X32173416Y-25452038D01*
X32173415Y-25452037D01*
X32164772Y-25449500D01*
X32035228Y-25449500D01*
X32026585Y-25452037D01*
X32026583Y-25452038D01*
X31919576Y-25483457D01*
X31919571Y-25483458D01*
X31910931Y-25485996D01*
X31903352Y-25490866D01*
X31903351Y-25490867D01*
X31809531Y-25551161D01*
X31809528Y-25551163D01*
X31801951Y-25556033D01*
X31796050Y-25562842D01*
X31796050Y-25562843D01*
X31745399Y-25621299D01*
X31717118Y-25653937D01*
X31713374Y-25662133D01*
X31713373Y-25662136D01*
X31688668Y-25716232D01*
X31663150Y-25752983D01*
X24519990Y-32896142D01*
X24499821Y-32912523D01*
X24499529Y-32912713D01*
X24499522Y-32912718D01*
X24490791Y-32918424D01*
X24484384Y-32926654D01*
X24484382Y-32926657D01*
X24471292Y-32943475D01*
X24467883Y-32947441D01*
X24467993Y-32947534D01*
X24464634Y-32951498D01*
X24460948Y-32955186D01*
X24457924Y-32959420D01*
X24457918Y-32959428D01*
X24448810Y-32972184D01*
X24445704Y-32976349D01*
X24419819Y-33009607D01*
X24419817Y-33009609D01*
X24413408Y-33017845D01*
X24410812Y-33025406D01*
X24406168Y-33031911D01*
X24403190Y-33041911D01*
X24403189Y-33041915D01*
X24391159Y-33082320D01*
X24389572Y-33087273D01*
X24375889Y-33127131D01*
X24375888Y-33127136D01*
X24372500Y-33137006D01*
X24372500Y-33144998D01*
X24370219Y-33152660D01*
X24370650Y-33163091D01*
X24370650Y-33163095D01*
X24372392Y-33205193D01*
X24372500Y-33210400D01*
X24372500Y-42514743D01*
X24361113Y-42567086D01*
X24317046Y-42663576D01*
X24317044Y-42663581D01*
X24313303Y-42671774D01*
X24312021Y-42680684D01*
X24312020Y-42680691D01*
X24296819Y-42786423D01*
X24294867Y-42800000D01*
X17970500Y-42800000D01*
X17970500Y-42286000D01*
X17971081Y-41990867D01*
X17974879Y-40061186D01*
X17982023Y-40019614D01*
X18002487Y-39982730D01*
X28910305Y-26347959D01*
X30606442Y-24227788D01*
X30650249Y-24192936D01*
X30704831Y-24180500D01*
X46431379Y-24180500D01*
X46474106Y-24187965D01*
G37*
%TD.AperFunction*%
M02*
