%TF.GenerationSoftware,KiCad,Pcbnew,(7.0.0)*%
%TF.CreationDate,2023-08-19T05:22:45+05:30*%
%TF.ProjectId,glowtie,676c6f77-7469-4652-9e6b-696361645f70,rev?*%
%TF.SameCoordinates,Original*%
%TF.FileFunction,Soldermask,Top*%
%TF.FilePolarity,Negative*%
%FSLAX46Y46*%
G04 Gerber Fmt 4.6, Leading zero omitted, Abs format (unit mm)*
G04 Created by KiCad (PCBNEW (7.0.0)) date 2023-08-19 05:22:45*
%MOMM*%
%LPD*%
G01*
G04 APERTURE LIST*
G04 Aperture macros list*
%AMRoundRect*
0 Rectangle with rounded corners*
0 $1 Rounding radius*
0 $2 $3 $4 $5 $6 $7 $8 $9 X,Y pos of 4 corners*
0 Add a 4 corners polygon primitive as box body*
4,1,4,$2,$3,$4,$5,$6,$7,$8,$9,$2,$3,0*
0 Add four circle primitives for the rounded corners*
1,1,$1+$1,$2,$3*
1,1,$1+$1,$4,$5*
1,1,$1+$1,$6,$7*
1,1,$1+$1,$8,$9*
0 Add four rect primitives between the rounded corners*
20,1,$1+$1,$2,$3,$4,$5,0*
20,1,$1+$1,$4,$5,$6,$7,0*
20,1,$1+$1,$6,$7,$8,$9,0*
20,1,$1+$1,$8,$9,$2,$3,0*%
%AMRotRect*
0 Rectangle, with rotation*
0 The origin of the aperture is its center*
0 $1 length*
0 $2 width*
0 $3 Rotation angle, in degrees counterclockwise*
0 Add horizontal line*
21,1,$1,$2,0,0,$3*%
G04 Aperture macros list end*
%ADD10C,0.850000*%
%ADD11R,0.500000X1.000000*%
%ADD12R,0.800000X0.500000*%
%ADD13RoundRect,0.250000X-0.450000X0.350000X-0.450000X-0.350000X0.450000X-0.350000X0.450000X0.350000X0*%
%ADD14RotRect,1.400000X1.800000X310.000000*%
%ADD15R,1.800000X1.400000*%
%ADD16R,1.400000X1.800000*%
%ADD17RoundRect,0.250000X-0.475000X0.337500X-0.475000X-0.337500X0.475000X-0.337500X0.475000X0.337500X0*%
%ADD18RotRect,1.400000X1.800000X50.000000*%
%ADD19RoundRect,0.200000X-0.275000X0.200000X-0.275000X-0.200000X0.275000X-0.200000X0.275000X0.200000X0*%
%ADD20C,1.500000*%
%ADD21R,0.550000X1.200000*%
%ADD22R,2.500000X1.100000*%
%ADD23R,1.100000X2.500000*%
%ADD24R,0.450000X1.475000*%
%ADD25RoundRect,0.250000X0.350000X0.450000X-0.350000X0.450000X-0.350000X-0.450000X0.350000X-0.450000X0*%
%ADD26RoundRect,0.093000X-0.372000X-0.562000X0.372000X-0.562000X0.372000X0.562000X-0.372000X0.562000X0*%
%ADD27RoundRect,0.131000X-1.489000X-0.524000X1.489000X-0.524000X1.489000X0.524000X-1.489000X0.524000X0*%
%ADD28RoundRect,0.250000X0.450000X-0.350000X0.450000X0.350000X-0.450000X0.350000X-0.450000X-0.350000X0*%
%ADD29RoundRect,0.250000X-0.350000X-0.450000X0.350000X-0.450000X0.350000X0.450000X-0.350000X0.450000X0*%
%ADD30R,1.299997X1.405349*%
%ADD31RoundRect,0.250000X0.475000X-0.337500X0.475000X0.337500X-0.475000X0.337500X-0.475000X-0.337500X0*%
%ADD32R,2.311400X1.497551*%
%ADD33RotRect,1.400000X1.800000X230.000000*%
%ADD34RoundRect,0.250000X0.325000X0.450000X-0.325000X0.450000X-0.325000X-0.450000X0.325000X-0.450000X0*%
%ADD35RoundRect,0.200000X0.200000X0.275000X-0.200000X0.275000X-0.200000X-0.275000X0.200000X-0.275000X0*%
%ADD36RoundRect,0.250000X-0.337500X-0.475000X0.337500X-0.475000X0.337500X0.475000X-0.337500X0.475000X0*%
%ADD37R,0.400000X1.350000*%
%ADD38O,1.200000X1.900000*%
%ADD39C,1.450000*%
%ADD40RotRect,1.400000X1.800000X130.000000*%
%ADD41RoundRect,0.042000X0.258000X-0.943000X0.258000X0.943000X-0.258000X0.943000X-0.258000X-0.943000X0*%
G04 APERTURE END LIST*
D10*
X74825000Y-63875000D03*
X77825000Y-63875000D03*
D11*
X78574999Y-62024999D03*
X77074999Y-62024999D03*
X74074999Y-62024999D03*
D12*
X79774999Y-62824999D03*
X79774999Y-64924999D03*
X72874999Y-64924999D03*
X72874999Y-62824999D03*
D13*
X51150000Y-53550000D03*
X51150000Y-55550000D03*
D14*
X109709105Y-36541282D03*
X107587906Y-34013335D03*
X103910893Y-37098716D03*
X106032092Y-39626663D03*
D15*
X128919999Y-29599999D03*
X128919999Y-26299999D03*
X124119999Y-26299999D03*
X124119999Y-29599999D03*
D16*
X23379999Y-41419999D03*
X20079999Y-41419999D03*
X20079999Y-46219999D03*
X23379999Y-46219999D03*
D15*
X33929999Y-75809999D03*
X33929999Y-79109999D03*
X38729999Y-79109999D03*
X38729999Y-75809999D03*
D17*
X125600000Y-56012500D03*
X125600000Y-58087500D03*
D18*
X106062092Y-65763335D03*
X103940893Y-68291282D03*
X107617906Y-71376663D03*
X109739105Y-68848716D03*
D19*
X25475000Y-55100000D03*
X25475000Y-56750000D03*
D13*
X28130000Y-47770000D03*
X28130000Y-49770000D03*
D20*
X94600000Y-60350000D03*
D15*
X83819999Y-53729999D03*
X83819999Y-50429999D03*
X79019999Y-50429999D03*
X79019999Y-53729999D03*
D21*
X129399999Y-47349999D03*
X130349999Y-47349999D03*
X131299999Y-47349999D03*
X131299999Y-44749999D03*
X130349999Y-44749999D03*
X129399999Y-44749999D03*
D22*
X32129999Y-49802499D03*
X32129999Y-51802499D03*
X32129999Y-53802499D03*
X32129999Y-55802499D03*
X32129999Y-57802499D03*
X32129999Y-59802499D03*
X32129999Y-61802499D03*
X32129999Y-63802499D03*
X47529999Y-63802499D03*
X47529999Y-61802499D03*
X47529999Y-59802499D03*
X47529999Y-57802499D03*
X47529999Y-55802499D03*
X47529999Y-53802499D03*
X47529999Y-51802499D03*
X47529999Y-49802499D03*
D23*
X34819999Y-65502499D03*
X36819999Y-65502499D03*
X38819999Y-65502499D03*
X40819999Y-65502499D03*
X42819999Y-65502499D03*
X44819999Y-65502499D03*
D24*
X129724999Y-60437999D03*
X130374999Y-60437999D03*
X131024999Y-60437999D03*
X131674999Y-60437999D03*
X131674999Y-54561999D03*
X131024999Y-54561999D03*
X130374999Y-54561999D03*
X129724999Y-54561999D03*
D25*
X120280000Y-48210000D03*
X118280000Y-48210000D03*
D17*
X55700000Y-55462500D03*
X55700000Y-57537500D03*
D13*
X125650000Y-51900000D03*
X125650000Y-53900000D03*
X51140000Y-62200000D03*
X51140000Y-64200000D03*
X51150000Y-58150000D03*
X51150000Y-60150000D03*
D26*
X56360000Y-52646000D03*
X58650000Y-52646000D03*
X60940000Y-52646000D03*
D27*
X58650000Y-45956000D03*
D28*
X125950000Y-47800000D03*
X125950000Y-45800000D03*
D16*
X23399999Y-59169999D03*
X20099999Y-59169999D03*
X20099999Y-63969999D03*
X23399999Y-63969999D03*
D29*
X113740000Y-48210000D03*
X115740000Y-48210000D03*
D30*
X62449999Y-57699721D03*
X62449999Y-55400277D03*
D16*
X139459999Y-64019999D03*
X142759999Y-64019999D03*
X142759999Y-59219999D03*
X139459999Y-59219999D03*
X139469999Y-46179999D03*
X142769999Y-46179999D03*
X142769999Y-41379999D03*
X139469999Y-41379999D03*
D31*
X122300000Y-53587500D03*
X122300000Y-51512500D03*
D32*
X59099999Y-55292175D03*
X59099999Y-57807823D03*
D33*
X56797906Y-39636663D03*
X58919105Y-37108716D03*
X55242092Y-34023335D03*
X53120893Y-36551282D03*
D34*
X120262500Y-45500000D03*
X118212500Y-45500000D03*
D35*
X114500000Y-40000000D03*
X112850000Y-40000000D03*
D36*
X118412500Y-60240000D03*
X120487500Y-60240000D03*
D29*
X114070000Y-60220000D03*
X116070000Y-60220000D03*
D37*
X85774999Y-61112499D03*
X86424999Y-61112499D03*
X87074999Y-61112499D03*
X87724999Y-61112499D03*
X88374999Y-61112499D03*
D38*
X83574999Y-63812499D03*
D39*
X84575000Y-61112500D03*
X89575000Y-61112500D03*
D38*
X90574999Y-63812499D03*
D40*
X53100893Y-68878716D03*
X55222092Y-71406663D03*
X58899105Y-68321282D03*
X56777906Y-65793335D03*
D15*
X33919999Y-26279999D03*
X33919999Y-29579999D03*
X38719999Y-29579999D03*
X38719999Y-26279999D03*
D13*
X28150000Y-51780000D03*
X28150000Y-53780000D03*
D41*
X114935000Y-56385000D03*
X116205000Y-56385000D03*
X117475000Y-56385000D03*
X118745000Y-56385000D03*
X118745000Y-51435000D03*
X117475000Y-51435000D03*
X116205000Y-51435000D03*
X114935000Y-51435000D03*
D20*
X94600000Y-56750000D03*
D34*
X115732500Y-45540000D03*
X113682500Y-45540000D03*
D15*
X124149999Y-75829999D03*
X124149999Y-79129999D03*
X128949999Y-79129999D03*
X128949999Y-75829999D03*
M02*
