%TF.GenerationSoftware,KiCad,Pcbnew,(7.0.0)*%
%TF.CreationDate,2023-08-19T05:22:45+05:30*%
%TF.ProjectId,glowtie,676c6f77-7469-4652-9e6b-696361645f70,rev?*%
%TF.SameCoordinates,Original*%
%TF.FileFunction,Profile,NP*%
%FSLAX46Y46*%
G04 Gerber Fmt 4.6, Leading zero omitted, Abs format (unit mm)*
G04 Created by KiCad (PCBNEW (7.0.0)) date 2023-08-19 05:22:45*
%MOMM*%
%LPD*%
G01*
G04 APERTURE LIST*
%TA.AperFunction,Profile*%
%ADD10C,0.100000*%
%TD*%
G04 APERTURE END LIST*
D10*
X132220000Y-81280000D02*
X116345000Y-81280000D01*
X30620000Y-24130000D02*
X17920000Y-40005000D01*
X17920000Y-65405000D02*
X30620000Y-81280000D01*
X30620000Y-24130000D02*
X46495000Y-24130000D01*
X144920000Y-65405000D02*
X132220000Y-81280000D01*
X91580000Y-40005000D02*
X94120000Y-42545000D01*
X81420000Y-65405000D02*
X91580000Y-65405000D01*
X68720000Y-42545000D02*
X46495000Y-24130000D01*
X144920000Y-65405000D02*
X144920000Y-40005000D01*
X71260000Y-65405000D02*
X68720000Y-62865000D01*
X30620000Y-81280000D02*
X46495000Y-81280000D01*
X91580000Y-65405000D02*
X94120000Y-62865000D01*
X17920000Y-40005000D02*
X17920000Y-65405000D01*
X81420000Y-65405000D02*
X71260000Y-65405000D01*
X68720000Y-42545000D02*
X71260000Y-40005000D01*
X71260000Y-40005000D02*
X91580000Y-40005000D01*
X116345000Y-24130000D02*
X94120000Y-42545000D01*
X132220000Y-24130000D02*
X144920000Y-40005000D01*
X46495000Y-81280000D02*
X68720000Y-62865000D01*
X116345000Y-81280000D02*
X94120000Y-62865000D01*
X132220000Y-24130000D02*
X116345000Y-24130000D01*
M02*
