M48
; DRILL file {KiCad (7.0.0)} date Sat Aug 19 05:22:42 2023
; FORMAT={-:-/ absolute / metric / decimal}
; #@! TF.CreationDate,2023-08-19T05:22:42+05:30
; #@! TF.GenerationSoftware,Kicad,Pcbnew,(7.0.0)
; #@! TF.FileFunction,MixedPlating,1,2
FMAT,2
METRIC
; #@! TA.AperFunction,Plated,PTH,ViaDrill
T1C0.400
; #@! TA.AperFunction,Plated,PTH,ComponentDrill
T2C0.600
; #@! TA.AperFunction,Plated,PTH,ComponentDrill
T3C0.850
; #@! TA.AperFunction,NonPlated,NPTH,ComponentDrill
T4C0.850
%
G90
G05
T1
X24.75Y-42.8
X25.275Y-43.275
X26.2Y-50.95
X26.575Y-51.55
X30.85Y-65.55
X31.55Y-65.55
X32.1Y-25.9
X32.325Y-65.5
X40.15Y-58.7
X40.825Y-58.725
X42.775Y-52.675
X43.1Y-50.25
X43.3Y-59.825
X52.625Y-56.4
X52.725Y-57.55
X53.25Y-57.025
X53.875Y-56.425
X58.6Y-40.5
X58.65Y-50.4
X58.65Y-51.05
X77.05Y-60.4
X77.05Y-61.05
X85.475Y-53.875
X86.2Y-53.875
X103.85Y-57.7
X104.35Y-57.2
X113.25Y-51.45
X113.9Y-51.45
X118.5Y-54.375
X118.75Y-55.05
X120.4Y-42.65
X120.4Y-43.3
X124.8Y-40.4
X125.45Y-40.4
X127.25Y-53.35
X130.35Y-42.4
X130.85Y-56.725
X131.825Y-56.725
X134.275Y-56.75
X135.325Y-56.725
T3
X84.575Y-61.112
X89.575Y-61.112
T4
X74.825Y-63.875
X77.825Y-63.875
T2
G00X83.575Y-64.162
M15
G01X83.575Y-63.462
M16
G05
G00X90.575Y-63.462
M15
G01X90.575Y-64.162
M16
G05
T0
M30
